<svg width="20" height="20" viewBox="0 0 20 20" fill="none" xmlns="http://www.w3.org/2000/svg">
<g clip-path="url(#clip0)">
<path d="M11.5625 10.9915C11.3469 10.9915 11.1719 11.1665 11.1719 11.3821C11.1719 11.5977 11.3469 11.7727 11.5625 11.7727C11.7781 11.7727 11.9531 11.5977 11.9531 11.3821C11.9531 11.1665 11.7781 10.9915 11.5625 10.9915Z" fill="currentColor"/>
<path d="M15.0477 13.0945C14.6815 12.7286 13.7935 11.738 13.093 10.1316C12.572 8.88168 11.3607 8.07422 10.0059 8.07422C8.65148 8.07422 7.44031 8.8818 6.91925 10.132C6.04034 12.1479 4.83964 13.2147 4.82811 13.2247C4.82671 13.2259 4.82534 13.2272 4.82397 13.2284C4.11577 13.8625 3.70959 14.7709 3.70959 15.7206C3.70959 16.8815 4.26245 17.8912 5.22151 18.5309C6.11511 19.1271 7.22265 19.3058 8.25996 19.0214C8.7798 18.879 9.38148 18.8037 10.0001 18.8037C10.6291 18.8037 11.2397 18.8815 11.7658 19.0287C12.7727 19.3105 13.8778 19.156 14.7901 18.5532C15.7602 17.9122 16.3226 16.8931 16.3226 15.7206C16.3226 14.6893 15.8583 13.7337 15.0477 13.0945ZM14.3593 17.9014C13.6553 18.3665 12.7867 18.5032 11.9763 18.2763C11.3825 18.1102 10.6991 18.0224 9.99996 18.0224C9.31261 18.0224 8.63953 18.1074 8.05332 18.268C7.23433 18.4926 6.36019 18.3515 5.65495 17.881C4.91862 17.3898 4.49073 16.6219 4.49073 15.7205C4.49073 14.9934 4.80151 14.2978 5.34343 13.8118C5.42679 13.7387 6.69444 12.6038 7.63663 10.4411C7.63749 10.4391 7.63839 10.437 7.63921 10.435C8.03796 9.47547 8.96687 8.85547 10.0058 8.85547C11.0451 8.85543 11.9742 9.47531 12.3728 10.4346C12.3736 10.4366 12.3745 10.4387 12.3754 10.4407C13.1405 12.1966 14.1256 13.2806 14.5135 13.6652C14.5247 13.6762 14.5365 13.6866 14.5488 13.6962C15.1795 14.1862 15.5412 14.9241 15.5412 15.7205C15.5413 16.6294 15.1065 17.4078 14.3593 17.9014Z" fill="currentColor"/>
<path d="M12.6266 12.5464C12.5089 12.3657 12.2669 12.3145 12.0861 12.4322C11.9053 12.5501 11.8542 12.792 11.9719 12.9728C12.5663 13.8854 13.1299 14.4932 13.4131 14.7743C13.5661 14.9263 13.8134 14.9254 13.9655 14.7723C14.1175 14.6192 14.1166 14.3719 13.9635 14.2199C13.7024 13.9606 13.1816 13.3986 12.6266 12.5464Z" fill="currentColor"/>
<path d="M8.73404 6.16992C9.10939 5.51386 9.26587 4.64249 9.16337 3.77948C8.96509 2.09928 7.8063 0.691742 6.51165 0.847211C5.92704 0.916391 5.40727 1.30014 5.04786 1.92776C4.67274 2.58331 4.51626 3.45468 4.61852 4.31831C4.94239 7.06226 7.49681 8.33113 8.73404 6.16992ZM5.72591 2.31585C5.93973 1.94229 6.27329 1.61745 6.70325 1.61745C7.47204 1.61745 8.24337 2.64944 8.38759 3.87132C8.47079 4.57183 8.34993 5.2682 8.05603 5.78187C7.15575 7.35469 5.60708 6.02867 5.39434 4.22659C5.31133 3.52554 5.43223 2.82909 5.72591 2.31585Z" fill="currentColor"/>
<path d="M4.99231 10.3713C5.10539 9.67505 4.96797 8.90508 4.60539 8.20317C4.24266 7.5011 3.69414 6.9434 3.06082 6.63277C2.3882 6.30285 1.69937 6.28582 1.12124 6.58477C0.543116 6.88348 0.158663 7.45508 0.0385842 8.19442C-0.0745019 8.89067 0.0629202 9.66059 0.425499 10.3626C0.788273 11.0645 1.33679 11.622 1.97011 11.9327C2.59863 12.2409 3.29496 12.2986 3.90957 11.981C4.48777 11.6823 4.8723 11.1106 4.99231 10.3713ZM3.55101 11.2869C3.19828 11.4693 2.75906 11.4495 2.31417 11.2313C1.83019 10.9939 1.40597 10.5579 1.1196 10.0039C0.83339 9.44981 0.723312 8.85172 0.809719 8.31965C0.889133 7.83067 1.12718 7.4611 1.47995 7.27883C1.47999 7.27879 1.48003 7.27879 1.48007 7.27875C1.87015 7.07707 2.32195 7.14051 2.71679 7.33418C3.20074 7.57157 3.62496 8.00754 3.91133 8.56176C4.19754 9.11587 4.30762 9.71403 4.22121 10.2461C4.14183 10.735 3.90379 11.1047 3.55101 11.2869Z" fill="currentColor"/>
<path d="M12.9296 7.26914C14.1138 7.26914 15.1948 5.97625 15.3905 4.32566C15.5985 2.5673 14.7126 0.843506 13.3054 0.843506C12.121 0.843506 11.0401 2.13644 10.8449 3.78699C10.6366 5.54855 11.5252 7.26914 12.9296 7.26914ZM11.6207 3.87875C11.7653 2.65695 12.5368 1.62472 13.3054 1.62472C13.3416 1.62472 13.3728 1.62648 13.4007 1.63011C13.8172 1.6764 14.1397 2.04042 14.3296 2.4121C14.5879 2.91761 14.6918 3.5816 14.6147 4.23375C14.4646 5.49953 13.6256 6.5852 12.8344 6.4825C12.8329 6.48234 12.8315 6.48215 12.8301 6.48195C12.4749 6.44016 12.1379 6.15539 11.9058 5.7007C11.6475 5.19515 11.5436 4.53109 11.6207 3.87875Z" fill="currentColor"/>
<path d="M19.9615 8.19585C19.7144 6.67453 18.3392 5.94726 16.9392 6.63421C15.6295 7.27671 14.7737 8.93179 15.0078 10.3727C15.2577 11.9121 16.6467 12.6127 18.0299 11.9341C19.3401 11.2915 20.1955 9.63663 19.9615 8.19585ZM17.6859 11.2327C17.241 11.4509 16.8018 11.4706 16.449 11.2884V11.2884C16.0963 11.1061 15.8582 10.7364 15.7789 10.2475C15.6003 9.14765 16.2803 7.82769 17.2833 7.33554C18.2024 6.88464 19.026 7.30917 19.1903 8.32105C19.3686 9.41886 18.6907 10.7399 17.6859 11.2327Z" fill="currentColor"/>
</g>
<defs>
<clipPath id="clip0">
<rect width="20" height="20" fill="white"/>
</clipPath>
</defs>
</svg>
