<svg width="14" height="14" viewBox="0 0 14 14" fill="none" xmlns="http://www.w3.org/2000/svg">
<path d="M7.3902 9.7154L11.8402 5.26527C11.9433 5.16235 12 5.02495 12 4.87845C12 4.73195 11.9433 4.59455 11.8402 4.49162L11.5126 4.1639C11.2991 3.95065 10.9521 3.95065 10.739 4.1639L7.00207 7.90078L3.26105 4.15975C3.15804 4.05683 3.02072 4 2.8743 4C2.72772 4 2.5904 4.05683 2.48731 4.15975L2.15975 4.48748C2.05675 4.59048 2 4.7278 2 4.8743C2 5.0208 2.05675 5.1582 2.15975 5.26113L6.61386 9.7154C6.7172 9.81857 6.85516 9.87524 7.00183 9.87491C7.14906 9.87524 7.28695 9.81857 7.3902 9.7154Z" fill="currentColor"/>
</svg>
