<svg width="22" height="22" viewBox="0 0 22 22" fill="none" xmlns="http://www.w3.org/2000/svg">
<path d="M11 17.875C10.796 17.875 10.5967 17.9355 10.4271 18.0488C10.2575 18.1621 10.1253 18.3232 10.0473 18.5116C9.9692 18.7 9.94877 18.9074 9.98857 19.1074C10.0284 19.3075 10.1266 19.4912 10.2708 19.6355C10.415 19.7797 10.5988 19.8779 10.7988 19.9177C10.9989 19.9575 11.2062 19.9371 11.3946 19.859C11.5831 19.781 11.7441 19.6488 11.8575 19.4792C11.9708 19.3096 12.0313 19.1102 12.0313 18.9063C12.031 18.6328 11.9222 18.3707 11.7289 18.1774C11.5355 17.9841 11.2734 17.8753 11 17.875ZM11 19.25C10.932 19.25 10.8656 19.2298 10.809 19.1921C10.7525 19.1543 10.7084 19.1006 10.6824 19.0378C10.6564 18.975 10.6496 18.9059 10.6629 18.8392C10.6761 18.7725 10.7089 18.7113 10.7569 18.6632C10.805 18.6151 10.8663 18.5824 10.9329 18.5691C10.9996 18.5558 11.0687 18.5627 11.1316 18.5887C11.1944 18.6147 11.2481 18.6587 11.2858 18.7153C11.3236 18.7718 11.3438 18.8383 11.3438 18.9063C11.3437 18.9974 11.3074 19.0848 11.243 19.1492C11.1785 19.2137 11.0911 19.2499 11 19.25Z" fill="currentColor"/>
<path d="M18.5623 12.375C18.9446 12.3749 19.3227 12.2952 19.6724 12.1408C20.0221 11.9865 20.3358 11.7609 20.5935 11.4785C20.8511 11.1961 21.047 10.863 21.1688 10.5007C21.2905 10.1383 21.3353 9.75451 21.3004 9.37383C21.2655 8.99315 21.1516 8.62394 20.966 8.28975C20.7804 7.95556 20.5271 7.66374 20.2224 7.43291C19.9177 7.20209 19.5682 7.03733 19.1962 6.94915C18.8243 6.86098 18.438 6.85132 18.0621 6.9208C17.6608 5.8799 17.0353 4.94009 16.23 4.16809C15.4247 3.39609 14.4593 2.81083 13.4024 2.45386C13.4047 2.4381 13.406 2.42219 13.4061 2.40625V1.03125C13.4061 0.940082 13.3699 0.852648 13.3054 0.788182C13.2409 0.723716 13.1535 0.6875 13.0623 0.6875C12.9712 0.6875 12.8837 0.723716 12.8193 0.788182C12.7548 0.852648 12.7186 0.940082 12.7186 1.03125V2.25964C12.4931 2.20705 12.264 2.16487 12.0311 2.1331V1.03125C12.0311 0.940082 11.9949 0.852648 11.9304 0.788182C11.8659 0.723716 11.7785 0.6875 11.6873 0.6875C11.5962 0.6875 11.5087 0.723716 11.4443 0.788182C11.3798 0.852648 11.3436 0.940082 11.3436 1.03125V2.07062C11.2296 2.06551 11.1151 2.0625 10.9998 2.0625C10.8846 2.0625 10.7701 2.06551 10.6561 2.07062V1.03125C10.6561 0.940082 10.6199 0.852648 10.5554 0.788182C10.4909 0.723716 10.4035 0.6875 10.3123 0.6875C10.2212 0.6875 10.1337 0.723716 10.0693 0.788182C10.0048 0.852648 9.96858 0.940082 9.96858 1.03125V2.1331C9.73595 2.16498 9.50678 2.20716 9.28108 2.25964V1.03125C9.28108 0.940082 9.24486 0.852648 9.1804 0.788182C9.11593 0.723716 9.0285 0.6875 8.93733 0.6875C8.84616 0.6875 8.75873 0.723716 8.69426 0.788182C8.6298 0.852648 8.59358 0.940082 8.59358 1.03125V2.40625C8.5937 2.42219 8.59493 2.4381 8.59727 2.45386C7.54035 2.81083 6.57497 3.39609 5.76966 4.16809C4.96434 4.94009 4.33885 5.8799 3.93757 6.9208C3.54082 6.84747 3.13278 6.86234 2.74242 6.96436C2.35205 7.06637 1.98892 7.25304 1.67877 7.51111C1.36862 7.76919 1.11907 8.09235 0.947797 8.45767C0.776528 8.82299 0.687744 9.22152 0.687744 9.625C0.687744 10.0285 0.776528 10.427 0.947797 10.7923C1.11907 11.1577 1.36862 11.4808 1.67877 11.7389C1.98892 11.997 2.35205 12.1836 2.74242 12.2856C3.13278 12.3877 3.54082 12.4025 3.93757 12.3292C4.29763 13.265 4.83978 14.12 5.53261 14.8448C4.77751 15.3852 4.16228 16.098 3.73806 16.9239C3.31385 17.7499 3.0929 18.6652 3.09358 19.5938V20.9688C3.09358 21.0599 3.1298 21.1474 3.19426 21.2118C3.25873 21.2763 3.34616 21.3125 3.43733 21.3125H18.5623C18.6535 21.3125 18.7409 21.2763 18.8054 21.2118C18.8699 21.1474 18.9061 21.0599 18.9061 20.9688V19.5938C18.9068 18.6652 18.6858 17.7499 18.2616 16.9239C17.8374 16.0979 17.2222 15.3852 16.467 14.8448C17.1599 14.12 17.702 13.265 18.0621 12.3292C18.2271 12.3596 18.3945 12.375 18.5623 12.375ZM18.5623 7.5625C18.8451 7.56235 19.1249 7.62036 19.3843 7.73292C19.6438 7.84548 19.8773 8.01019 20.0704 8.21681C20.2634 8.42343 20.412 8.66755 20.5067 8.934C20.6015 9.20045 20.6404 9.48353 20.6211 9.76567C20.6018 10.0478 20.5247 10.323 20.3946 10.574C20.2645 10.8251 20.0841 11.0467 19.8647 11.2252C19.6453 11.4036 19.3916 11.535 19.1192 11.6112C18.8469 11.6874 18.5618 11.7068 18.2817 11.6682C18.397 11.2576 18.4772 10.838 18.5213 10.4138L18.6631 10.5556C18.695 10.5875 18.7329 10.6129 18.7746 10.6301C18.8163 10.6474 18.861 10.6563 18.9062 10.6563C18.9513 10.6563 18.996 10.6474 19.0377 10.6301C19.0794 10.6129 19.1173 10.5875 19.1492 10.5556C19.1812 10.5237 19.2065 10.4858 19.2238 10.4441C19.241 10.4024 19.2499 10.3577 19.2499 10.3125C19.2499 10.2674 19.241 10.2227 19.2238 10.181C19.2065 10.1393 19.1812 10.1014 19.1492 10.0695L18.7047 9.625H19.5936C19.6847 9.625 19.7722 9.58878 19.8366 9.52432C19.9011 9.45985 19.9373 9.37242 19.9373 9.28125C19.9373 9.19008 19.9011 9.10265 19.8366 9.03818C19.7722 8.97372 19.6847 8.9375 19.5936 8.9375H18.5307C18.4894 8.47893 18.406 8.02513 18.2815 7.58184C18.3746 7.56905 18.4684 7.56259 18.5623 7.5625ZM9.28108 2.96751V4.125C9.28108 4.21617 9.3173 4.3036 9.38176 4.36807C9.44623 4.43253 9.53366 4.46875 9.62483 4.46875C9.716 4.46875 9.80343 4.43253 9.8679 4.36807C9.93236 4.3036 9.96858 4.21617 9.96858 4.125V2.82734C10.1964 2.79293 10.4259 2.76998 10.6561 2.75859V4.125C10.6561 4.21617 10.6923 4.3036 10.7568 4.36807C10.8212 4.43253 10.9087 4.46875 10.9998 4.46875C11.091 4.46875 11.1784 4.43253 11.2429 4.36807C11.3074 4.3036 11.3436 4.21617 11.3436 4.125V2.75859C11.5738 2.76998 11.8032 2.79293 12.0311 2.82734V4.125C12.0311 4.21617 12.0673 4.3036 12.1318 4.36807C12.1962 4.43253 12.2837 4.46875 12.3748 4.46875C12.466 4.46875 12.5534 4.43253 12.6179 4.36807C12.6824 4.3036 12.7186 4.21617 12.7186 4.125V2.96751C15.6805 3.73265 17.8748 6.42735 17.8748 9.625C17.8748 13.4158 14.7907 16.5 10.9998 16.5C7.209 16.5 4.12483 13.4159 4.12483 9.625C4.12483 6.42739 6.3192 3.73265 9.28108 2.96751ZM14.7806 16.1725C14.7775 16.4508 14.6899 16.7215 14.5296 16.9489C14.3692 17.1763 14.1436 17.3497 13.8826 17.4461C13.6216 17.5425 13.3375 17.5575 13.0678 17.4889C12.7981 17.4204 12.5556 17.2717 12.3723 17.0623C13.2202 16.9062 14.0349 16.6052 14.7806 16.1725ZM9.62736 17.0623C9.44405 17.2717 9.20152 17.4204 8.93184 17.4889C8.66216 17.5575 8.37803 17.5425 8.11703 17.4461C7.85602 17.3497 7.63043 17.1763 7.47009 16.9489C7.30974 16.7215 7.22219 16.4508 7.21901 16.1725C7.96476 16.6052 8.77945 16.9062 9.62736 17.0623ZM3.43733 11.6875C3.15454 11.6876 2.87473 11.6296 2.61531 11.5171C2.35588 11.4045 2.12237 11.2398 1.92929 11.0332C1.73622 10.8266 1.58769 10.5825 1.49294 10.316C1.3982 10.0496 1.35926 9.76647 1.37855 9.48433C1.39784 9.2022 1.47494 8.92704 1.60506 8.67597C1.73518 8.42489 1.91555 8.20325 2.13495 8.02483C2.35435 7.84641 2.6081 7.71501 2.88044 7.6388C3.15277 7.56259 3.43786 7.5432 3.718 7.58184C3.59355 8.02513 3.51012 8.47893 3.46878 8.9375H2.40608C2.31491 8.9375 2.22748 8.97372 2.16301 9.03818C2.09855 9.10265 2.06233 9.19008 2.06233 9.28125C2.06233 9.37242 2.09855 9.45985 2.16301 9.52432C2.22748 9.58878 2.31491 9.625 2.40608 9.625H3.29497L2.85051 10.0694C2.78604 10.1339 2.74982 10.2213 2.74982 10.3125C2.74982 10.4037 2.78604 10.4911 2.85051 10.5556C2.91497 10.62 3.00241 10.6563 3.09358 10.6563C3.18475 10.6563 3.27219 10.62 3.33665 10.5556L3.47845 10.4138C3.52255 10.8379 3.60272 11.2576 3.71809 11.6681C3.62505 11.6809 3.53125 11.6874 3.43733 11.6875ZM18.2186 19.5938V20.625H3.78108V19.5938C3.77803 18.752 3.98253 17.9225 4.37646 17.1786C4.7704 16.4347 5.34163 15.7994 6.0396 15.3288C6.21019 15.4774 6.38736 15.6181 6.57113 15.7511C6.47444 16.2331 6.55303 16.7337 6.79276 17.1628C7.03248 17.5919 7.41757 17.9213 7.87865 18.0916C8.33972 18.2619 8.84646 18.262 9.30757 18.0917C9.76868 17.9215 10.1538 17.5922 10.3937 17.1632C10.5937 17.1791 10.7957 17.1872 10.9998 17.1875C11.2039 17.1878 11.406 17.1797 11.606 17.1632C11.8458 17.5922 12.231 17.9215 12.6921 18.0917C13.1532 18.262 13.6599 18.2619 14.121 18.0916C14.5821 17.9213 14.9672 17.5919 15.2069 17.1628C15.4466 16.7337 15.5252 16.2331 15.4285 15.7511C15.612 15.6181 15.7892 15.4774 15.9601 15.3288C16.658 15.7994 17.2293 16.4347 17.6232 17.1786C18.0171 17.9225 18.2216 18.752 18.2186 19.5938Z" fill="currentColor"/>
<path d="M7.90625 11C8.11021 11 8.30959 10.9395 8.47918 10.8262C8.64877 10.7129 8.78094 10.5518 8.859 10.3634C8.93705 10.175 8.95747 9.96761 8.91768 9.76757C8.87789 9.56752 8.77967 9.38377 8.63545 9.23955C8.49123 9.09532 8.30748 8.99711 8.10744 8.95732C7.90739 8.91752 7.70004 8.93795 7.51161 9.016C7.32317 9.09405 7.16211 9.22623 7.0488 9.39582C6.93548 9.56541 6.875 9.76479 6.875 9.96876C6.87531 10.2422 6.98405 10.5043 7.17738 10.6976C7.37071 10.891 7.63284 10.9997 7.90625 11ZM7.90625 9.625C7.97424 9.625 8.0407 9.64516 8.09723 9.68294C8.15375 9.72071 8.19781 9.7744 8.22383 9.83721C8.24985 9.90002 8.25666 9.96914 8.24339 10.0358C8.23013 10.1025 8.19739 10.1638 8.14932 10.2118C8.10124 10.2599 8.03999 10.2926 7.97331 10.3059C7.90663 10.3192 7.83751 10.3124 7.7747 10.2863C7.71189 10.2603 7.6582 10.2163 7.62043 10.1597C7.58266 10.1032 7.5625 10.0367 7.5625 9.96876C7.5626 9.87762 7.59885 9.79024 7.66329 9.7258C7.72774 9.66136 7.81511 9.62511 7.90625 9.625Z" fill="currentColor"/>
<path d="M14.0938 11C14.2977 11 14.4971 10.9395 14.6667 10.8262C14.8363 10.7129 14.9685 10.5518 15.0465 10.3634C15.1246 10.175 15.145 9.96761 15.1052 9.76757C15.0654 9.56752 14.9672 9.38377 14.823 9.23955C14.6787 9.09532 14.495 8.99711 14.2949 8.95732C14.0949 8.91752 13.8875 8.93795 13.6991 9.016C13.5107 9.09405 13.3496 9.22623 13.2363 9.39582C13.123 9.56541 13.0625 9.76479 13.0625 9.96876C13.0628 10.2422 13.1716 10.5043 13.3649 10.6976C13.5582 10.891 13.8203 10.9997 14.0938 11ZM14.0938 9.625C14.1617 9.625 14.2282 9.64516 14.2847 9.68294C14.3413 9.72071 14.3853 9.7744 14.4113 9.83721C14.4374 9.90002 14.4442 9.96914 14.4309 10.0358C14.4176 10.1025 14.3849 10.1638 14.3368 10.2118C14.2887 10.2599 14.2275 10.2926 14.1608 10.3059C14.0941 10.3192 14.025 10.3124 13.9622 10.2863C13.8994 10.2603 13.8457 10.2163 13.8079 10.1597C13.7702 10.1032 13.75 10.0367 13.75 9.96876C13.7501 9.87762 13.7864 9.79024 13.8508 9.7258C13.9152 9.66136 14.0026 9.62511 14.0938 9.625Z" fill="currentColor"/>
<path d="M11 12.7188C11.3645 12.7183 11.714 12.5733 11.9718 12.3156C12.2296 12.0578 12.3746 11.7083 12.375 11.3438C12.375 11.2526 12.3388 11.1651 12.2743 11.1007C12.2099 11.0362 12.1224 11 12.0312 11C11.9401 11 11.8526 11.0362 11.7882 11.1007C11.7237 11.1651 11.6875 11.2526 11.6875 11.3438C11.6875 11.5261 11.6151 11.701 11.4861 11.8299C11.3572 11.9588 11.1823 12.0312 11 12.0312C10.8177 12.0312 10.6428 11.9588 10.5139 11.8299C10.3849 11.701 10.3125 11.5261 10.3125 11.3438C10.3125 11.2526 10.2763 11.1651 10.2118 11.1007C10.1474 11.0362 10.0599 11 9.96875 11C9.87758 11 9.79015 11.0362 9.72568 11.1007C9.66122 11.1651 9.625 11.2526 9.625 11.3438C9.62541 11.7083 9.77041 12.0578 10.0282 12.3156C10.286 12.5733 10.6355 12.7183 11 12.7188Z" fill="#585E6F"/>
</svg>
