<svg width="18" height="24" viewBox="0 0 18 24" fill="none" xmlns="http://www.w3.org/2000/svg">
<path fill-rule="evenodd" clip-rule="evenodd" d="M8.99991 0.75C7.80643 0.75 6.66184 1.22411 5.81793 2.06802C4.97401 2.91193 4.49991 4.05653 4.49991 5.25V6H3.87741C3.246 5.99934 2.63865 6.24222 2.18182 6.6781C1.72499 7.11398 1.45387 7.70925 1.42491 8.34L0.832408 20.6775C0.817219 21.0093 0.869365 21.3407 0.985701 21.6517C1.10204 21.9628 1.28016 22.2471 1.50932 22.4875C1.73848 22.7278 2.01395 22.9193 2.3191 23.0504C2.62426 23.1814 2.9528 23.2493 3.28491 23.25H14.7149C15.047 23.2493 15.3756 23.1814 15.6807 23.0504C15.9859 22.9193 16.2613 22.7278 16.4905 22.4875C16.7197 22.2471 16.8978 21.9628 17.0141 21.6517C17.1305 21.3407 17.1826 21.0093 17.1674 20.6775L16.5749 8.34C16.5459 7.70925 16.2748 7.11398 15.818 6.6781C15.3612 6.24222 14.7538 5.99934 14.1224 6H13.4999V5.25C13.4999 4.05653 13.0258 2.91193 12.1819 2.06802C11.338 1.22411 10.1934 0.75 8.99991 0.75ZM5.99991 5.25C5.99991 4.45435 6.31598 3.69129 6.87859 3.12868C7.4412 2.56607 8.20426 2.25 8.99991 2.25C9.79556 2.25 10.5586 2.56607 11.1212 3.12868C11.6838 3.69129 11.9999 4.45435 11.9999 5.25V6H5.99991V5.25ZM15.0749 8.4075L15.6674 20.7525C15.6721 20.8815 15.6513 21.0102 15.6063 21.1311C15.5613 21.2521 15.4928 21.363 15.4049 21.4575C15.3151 21.5497 15.2079 21.623 15.0894 21.6733C14.9709 21.7235 14.8436 21.7496 14.7149 21.75H3.28491C3.15622 21.7496 3.02891 21.7235 2.91044 21.6733C2.79196 21.623 2.68469 21.5497 2.59491 21.4575C2.50699 21.363 2.43855 21.2521 2.39351 21.1311C2.34847 21.0102 2.32771 20.8815 2.33241 20.7525L2.92491 8.4075C2.93648 8.16276 3.04192 7.9319 3.21931 7.76289C3.3967 7.59388 3.6324 7.49973 3.87741 7.5H14.1224C14.3674 7.49973 14.6031 7.59388 14.7805 7.76289C14.9579 7.9319 15.0633 8.16276 15.0749 8.4075ZM5.51978 10.8925C5.93399 10.8925 6.26978 10.5567 6.26978 10.1425C6.26978 9.72824 5.93399 9.39246 5.51978 9.39246C5.10556 9.39246 4.76978 9.72824 4.76978 10.1425C4.76978 10.5567 5.10556 10.8925 5.51978 10.8925ZM13.23 10.1425C13.23 10.5567 12.8942 10.8925 12.48 10.8925C12.0658 10.8925 11.73 10.5567 11.73 10.1425C11.73 9.72824 12.0658 9.39246 12.48 9.39246C12.8942 9.39246 13.23 9.72824 13.23 10.1425Z" fill="currentColor"/>
</svg>
