<svg width="31" height="25" viewBox="0 0 31 25" fill="none" xmlns="http://www.w3.org/2000/svg">
<path fill-rule="evenodd" clip-rule="evenodd" d="M23.9542 4.81143H27.0629C29.0382 4.81143 30.6249 6.39816 30.6249 8.37348V20.9378C30.6249 22.9131 29.0382 24.4998 27.0629 24.4998H4.3953C2.41998 24.4998 0.833252 22.9131 0.833252 20.9378V8.37348C0.833252 6.39816 2.41998 4.81143 4.3953 4.81143H7.504L9.22026 2.22085C9.8679 1.24938 11.0013 0.666504 12.167 0.666504H19.2911C20.4569 0.666504 21.5903 1.24938 22.2379 2.22085L23.9542 4.81143ZM7.69829 13.5546C7.69829 17.991 11.2927 21.5854 15.7291 21.5854C20.1655 21.5854 23.7599 17.991 23.7599 13.587C23.7599 9.15065 20.1655 5.55622 15.7291 5.55622C11.2927 5.55622 7.69829 9.11827 7.69829 13.5546ZM26.48 9.83068H26.6095C27.1924 9.7983 27.6134 9.31256 27.581 8.72968C27.5486 8.1468 27.0629 7.69345 26.48 7.72583H25.1847C24.6342 7.75822 24.2132 8.17918 24.1809 8.72968C24.1485 9.31256 24.6018 9.7983 25.1847 9.83068H26.48ZM11.2603 13.5866C11.2603 11.1255 13.268 9.11782 15.7291 9.11782C18.1901 9.11782 20.1978 11.0931 20.1978 13.5542C20.1978 16.0152 18.1901 18.0229 15.7291 18.0229C13.268 18.0229 11.2603 16.0476 11.2603 13.5866Z" fill="currentColor"/>
</svg>
