<svg width="16" height="16" viewBox="0 0 16 16" fill="none" xmlns="http://www.w3.org/2000/svg">
<path d="M7.0625 1.4375V5.8125C7.0625 6.14402 6.9308 6.46196 6.69638 6.69638C6.46196 6.9308 6.14402 7.0625 5.8125 7.0625H1.4375C1.10598 7.0625 0.788037 6.9308 0.553616 6.69638C0.319196 6.46196 0.1875 6.14402 0.1875 5.8125V1.4375C0.1875 1.10598 0.319196 0.788037 0.553616 0.553616C0.788037 0.319196 1.10598 0.1875 1.4375 0.1875H5.8125C6.14402 0.1875 6.46196 0.319196 6.69638 0.553616C6.9308 0.788037 7.0625 1.10598 7.0625 1.4375ZM14.5625 0.1875H10.1875C9.85598 0.1875 9.53804 0.319196 9.30362 0.553616C9.0692 0.788037 8.9375 1.10598 8.9375 1.4375V5.8125C8.9375 6.14402 9.0692 6.46196 9.30362 6.69638C9.53804 6.9308 9.85598 7.0625 10.1875 7.0625H14.5625C14.894 7.0625 15.212 6.9308 15.4464 6.69638C15.6808 6.46196 15.8125 6.14402 15.8125 5.8125V1.4375C15.8125 1.10598 15.6808 0.788037 15.4464 0.553616C15.212 0.319196 14.894 0.1875 14.5625 0.1875ZM5.8125 8.9375H1.4375C1.10598 8.9375 0.788037 9.0692 0.553616 9.30362C0.319196 9.53804 0.1875 9.85598 0.1875 10.1875V14.5625C0.1875 14.894 0.319196 15.212 0.553616 15.4464C0.788037 15.6808 1.10598 15.8125 1.4375 15.8125H5.8125C6.14402 15.8125 6.46196 15.6808 6.69638 15.4464C6.9308 15.212 7.0625 14.894 7.0625 14.5625V10.1875C7.0625 9.85598 6.9308 9.53804 6.69638 9.30362C6.46196 9.0692 6.14402 8.9375 5.8125 8.9375ZM12.375 8.9375C11.6951 8.9375 11.0305 9.13911 10.4652 9.51682C9.89993 9.89454 9.45934 10.4314 9.19916 11.0595C8.93899 11.6876 8.87091 12.3788 9.00355 13.0456C9.13619 13.7124 9.46358 14.3249 9.94432 14.8057C10.4251 15.2864 11.0376 15.6138 11.7044 15.7464C12.3712 15.8791 13.0624 15.811 13.6905 15.5508C14.3186 15.2907 14.8555 14.8501 15.2332 14.2848C15.6109 13.7195 15.8125 13.0549 15.8125 12.375C15.8125 11.4633 15.4503 10.589 14.8057 9.94432C14.161 9.29966 13.2867 8.9375 12.375 8.9375Z" fill="currentColor"/>
</svg>
