<svg width="18" height="16" viewBox="0 0 18 16" fill="none" xmlns="http://www.w3.org/2000/svg">
<path d="M16.9021 0.471003C16.8216 0.382703 16.7076 0.333252 16.5882 0.333252H10.502C10.3825 0.333252 10.2686 0.382703 10.1881 0.471003C10.1072 0.558879 10.0672 0.676635 10.0772 0.795956L10.1271 1.38261H16.9631L17.0129 0.795956C17.023 0.676635 16.9831 0.558912 16.9021 0.471003Z" fill="currentColor"/>
<path d="M11.049 12.2137H16.0413L16.894 2.19019H10.1958L11.049 12.2137Z" fill="currentColor"/>
<path d="M11.0964 14.4453C11.0964 15.0278 11.5685 15.5 12.151 15.5H14.9394C15.5219 15.5 15.994 15.0278 15.994 14.4453V13.0984H11.0964V14.4453Z" fill="currentColor"/>
<path d="M9.44298 11.6711H4.06896L1.90833 12.651C1.90354 12.6531 1.89832 12.6542 1.89355 12.6564V13.6357C1.89355 14.6656 2.72841 15.5 3.75778 15.5H7.92886C8.95823 15.5 9.79308 14.6656 9.79308 13.6357V12.0212C9.79312 11.8278 9.63641 11.6711 9.44298 11.6711Z" fill="currentColor"/>
<path d="M7.85274 9.95557L5.68262 10.9398H8.48885C8.57813 10.9398 8.66072 10.8928 8.70759 10.8172C8.75381 10.7404 8.75747 10.6459 8.71708 10.566C8.57712 10.2936 8.33058 10.0918 8.03616 10.0077L7.85274 9.95557Z" fill="currentColor"/>
<path d="M8.20337 8.50195C8.23596 8.41473 8.23283 8.31854 8.19444 8.23389L8.10085 8.02888C7.9631 7.72496 7.66349 7.54517 7.35018 7.54517C7.2366 7.54517 7.12094 7.5693 7.01059 7.61879L1.31693 10.2006C0.902702 10.3883 0.719219 10.8767 0.906845 11.291L0.99994 11.4965C1.03837 11.5806 1.10872 11.6469 1.19559 11.6795C1.2349 11.6942 1.27697 11.7016 1.31853 11.7016C1.3685 11.7016 1.41799 11.6911 1.46369 11.6706L8.01996 8.6976C8.1046 8.65921 8.17026 8.58921 8.20337 8.50195Z" fill="currentColor"/>
</svg>
