<svg width="20" height="18" viewBox="0 0 20 18" fill="none" xmlns="http://www.w3.org/2000/svg">
<g clip-path="url(#clip0)">
<path d="M18.0232 10.13C17.4423 9.06836 16.8649 8.38227 16.6568 8.15V6.583L19.3554 4.36716C19.4197 4.31436 19.4577 4.23618 19.4595 4.15302C19.4613 4.06985 19.4267 3.99008 19.3648 3.93458L17.323 2.10449C17.2058 1.99943 17.0255 2.00931 16.9204 2.12649C16.8153 2.24371 16.8252 2.42395 16.9424 2.52904L18.7368 4.1374L16.657 5.84522V4.67943C16.657 4.522 16.5294 4.39437 16.3719 4.39437C16.2144 4.39437 16.0868 4.522 16.0868 4.67943L16.0867 8.02024C14.0513 8.34966 11.9913 8.34962 9.95595 8.02017V4.67943C9.95595 4.522 9.82836 4.39437 9.67089 4.39437C9.51342 4.39437 9.38583 4.522 9.38583 4.67943V5.84533L7.30579 4.1374L9.52483 2.14816C9.85128 1.85542 10.2729 1.73375 10.6786 1.78195C10.7621 2.14082 10.954 2.89358 11.2486 3.64348C11.7328 4.87574 12.2975 5.61242 12.9271 5.83298C12.9576 5.84366 12.9894 5.84902 13.0213 5.84902C13.0531 5.84902 13.085 5.84366 13.1155 5.83298C13.7451 5.61242 14.3098 4.87574 14.7941 3.64352C15.0882 2.89502 15.2799 2.14424 15.3638 1.78449C15.6149 1.75447 15.8743 1.78807 16.1154 1.8913C16.2603 1.95329 16.4277 1.88613 16.4897 1.74143C16.5517 1.5967 16.4846 1.42916 16.3399 1.3672C15.6076 1.05367 14.7538 1.19769 14.1646 1.73394L13.9016 1.9734C13.3997 2.43041 12.6431 2.43041 12.1414 1.9734L11.8783 1.73394C11.1016 1.02684 9.92616 1.02247 9.14421 1.72372L6.67782 3.93466C6.61587 3.99015 6.58128 4.06997 6.5831 4.15309C6.58489 4.23625 6.62294 4.31444 6.68717 4.36723L9.38575 6.58307V8.14985C9.19887 8.35783 8.7186 8.92579 8.2067 9.79671C7.77318 9.56569 7.31469 9.33761 6.85026 9.10671C6.44441 8.90488 6.03563 8.70162 5.64324 8.49519C6.02674 8.01496 6.32256 7.47137 6.4522 6.83408C6.6503 5.8602 6.36053 4.99026 5.65718 4.44731C4.99041 3.93261 4.07216 3.81786 3.37217 4.1618C2.99695 4.34614 2.3675 4.82458 2.3675 5.95738C2.3675 6.67445 2.82287 7.35232 3.75974 8.02978C4.05278 8.24168 4.38224 8.44692 4.7329 8.64719C4.29816 9.07482 3.79923 9.45543 3.32789 9.81492C2.31311 10.5889 1.35032 11.3238 1.32542 12.314C0.704597 12.4629 0.225579 12.9806 0.142189 13.6327C-0.0473963 15.1173 -0.0473963 16.6228 0.142189 18.1074C0.23797 18.856 0.855413 19.4281 1.61041 19.4677C3.1242 19.5466 4.64864 19.5861 6.17311 19.5861C7.69754 19.5861 9.22209 19.5466 10.7359 19.4677C11.4911 19.4281 12.1084 18.8559 12.2037 18.1074C12.2605 17.6636 12.2999 17.2178 12.3227 16.7713C12.5547 16.7783 12.7885 16.782 13.0213 16.782C16.7427 16.782 19.1706 15.9113 19.2722 15.8742C19.3847 15.8331 19.4595 15.7262 19.4595 15.6065C19.4596 13.2499 18.6785 11.3276 18.0232 10.13ZM11.7575 2.39476C12.4779 3.05112 13.5647 3.05112 14.2855 2.39483L14.5485 2.15542C14.602 2.10677 14.6585 2.06264 14.7174 2.02303C14.6184 2.40068 14.4665 2.91855 14.2636 3.43489C13.7884 4.64405 13.3398 5.09714 13.0214 5.25491C12.703 5.09714 12.2544 4.64405 11.7793 3.43489C11.5764 2.91847 11.4245 2.40027 11.3255 2.02246C11.3842 2.06211 11.4407 2.10635 11.4946 2.15538L11.7575 2.39476ZM2.93777 5.95723C2.93777 5.33777 3.17494 4.8938 3.62371 4.67331C3.81139 4.5811 4.02587 4.53637 4.24662 4.53637C4.61553 4.53637 5.00185 4.66138 5.30895 4.89843C5.61731 5.13644 6.10329 5.68965 5.89367 6.72025C5.77877 7.2852 5.49766 7.77669 5.13081 8.21731C3.89877 7.5269 2.93777 6.79391 2.93777 5.95723ZM1.64013 12.8419C2.14826 12.8156 2.65659 12.7935 3.151 12.7764C3.30835 12.7709 3.43146 12.639 3.42599 12.4817C3.42051 12.3243 3.28957 12.2016 3.13123 12.2066C2.72804 12.2206 2.31561 12.2379 1.90163 12.2581C1.97506 11.5643 2.76905 10.9581 3.67376 10.2681C4.20523 9.86269 4.76943 9.43236 5.25437 8.93404C5.6912 9.16684 6.1473 9.39367 6.59652 9.61704C7.04616 9.84065 7.49944 10.0661 7.92936 10.2955C7.64695 10.832 7.36923 11.4564 7.13935 12.1599C6.18041 12.1492 5.22305 12.1533 4.27285 12.1742C4.11542 12.1777 3.99064 12.308 3.9941 12.4655C3.99755 12.6229 4.12728 12.749 4.28532 12.7442C6.41036 12.6975 8.57071 12.7305 10.7064 12.8419C11.1859 12.8668 11.5778 13.2296 11.6383 13.7048C11.6783 14.0176 11.7091 14.3315 11.7317 14.6458C11.7087 14.9613 11.6774 15.2745 11.6383 15.5775C11.5778 16.0523 11.1858 16.4149 10.7059 16.4398C10.0604 16.4735 9.41202 16.4998 8.77276 16.519C8.78644 16.1165 8.77759 15.7122 8.74532 15.312C8.70172 14.7706 8.26254 14.3401 7.72381 14.3106C6.80138 14.2601 5.866 14.2601 4.94381 14.3106C4.40504 14.3401 3.96589 14.7706 3.92226 15.312C3.88976 15.7153 3.88098 16.1226 3.89512 16.5282C3.14442 16.5082 2.3876 16.479 1.64013 16.4398C1.16039 16.415 0.768299 16.0523 0.707865 15.5774C0.669629 15.278 0.638272 14.9658 0.614403 14.6493C0.63698 14.3338 0.667767 14.0188 0.707865 13.7048C0.768603 13.2297 1.1607 12.8668 1.64013 12.8419ZM8.43103 10.572C9.35451 11.1005 10.1007 11.6533 10.3514 12.2543C9.48233 12.2128 8.61001 12.184 7.73795 12.1684C7.94346 11.5733 8.18526 11.0383 8.43103 10.572ZM8.17702 16.9603C8.15619 17.2188 7.94794 17.4242 7.69264 17.4382C7.6926 17.4382 7.6926 17.4382 7.6926 17.4382C6.79093 17.4875 5.87664 17.4875 4.9749 17.4382C4.7196 17.4242 4.51135 17.2188 4.49052 16.9603C4.44769 16.4286 4.44769 15.8894 4.49052 15.3578C4.51135 15.0993 4.7196 14.8938 4.97494 14.8799C5.42575 14.8552 5.87976 14.8428 6.33377 14.8428C6.78778 14.8428 7.24179 14.8552 7.69264 14.8799C7.94794 14.8938 8.15619 15.0993 8.17702 15.3578C8.21985 15.8894 8.21985 16.4286 8.17702 16.9603ZM10.7063 18.8982C7.69834 19.055 4.64814 19.055 1.64032 18.8982C1.16081 18.873 0.768603 18.51 0.707865 18.035C0.645 17.5427 0.604179 17.0479 0.584415 16.5524C0.84994 16.8187 1.2109 16.9885 1.61049 17.0092C2.38057 17.0496 3.16073 17.0795 3.934 17.0996C4.01758 17.5963 4.43647 17.9797 4.94377 18.0075C5.40496 18.0327 5.86938 18.0453 6.33377 18.0453C6.79815 18.0453 7.26261 18.0327 7.72373 18.0075C8.23414 17.9795 8.65493 17.5916 8.7349 17.0905C9.39606 17.0711 10.0674 17.0441 10.7355 17.0092C11.1353 16.9885 11.4964 16.8185 11.762 16.5523C11.7422 17.0478 11.7013 17.5427 11.6383 18.0351C11.5778 18.5101 11.1858 18.873 10.7063 18.8982ZM17.9539 15.6563C17.8952 14.7993 17.7869 13.9455 17.6307 13.1133C17.6016 12.9586 17.4528 12.8568 17.2979 12.8858C17.1432 12.9148 17.0413 13.0638 17.0703 13.2185C17.2277 14.0566 17.3347 14.9176 17.3904 15.7811C17.1709 15.8261 16.922 15.8728 16.6465 15.9183C16.6121 14.7719 16.4897 13.6304 16.2815 12.5203C16.2525 12.3656 16.1035 12.2637 15.9488 12.2927C15.7941 12.3217 15.6922 12.4707 15.7212 12.6254C15.9281 13.7287 16.0481 14.864 16.0788 16.004C15.2288 16.1207 14.1908 16.2118 13.0213 16.2118C12.7952 16.2118 12.568 16.2082 12.3427 16.2015C12.3588 15.3436 12.3127 14.4847 12.2038 13.6327C12.1183 12.9615 11.6133 12.4327 10.9658 12.302C10.7566 11.4309 9.86223 10.7312 8.70947 10.0733C9.16508 9.30218 9.59134 8.782 9.77747 8.56859C10.8542 8.74776 11.9378 8.83761 13.0215 8.83761C14.105 8.83761 15.1886 8.7478 16.2653 8.56862C16.4792 8.81325 17.0087 9.46 17.5323 10.4209C18.1323 11.5218 18.844 13.2669 18.8873 15.4015C18.7019 15.46 18.384 15.5536 17.9539 15.6563Z" fill="currentColor"/>
<path d="M7.47702 15.3122C7.09625 15.2944 6.71142 15.2854 6.33312 15.2854C5.95479 15.2854 5.56992 15.2944 5.18915 15.3122C5.04373 15.319 4.92682 15.4343 4.91792 15.5797C4.89455 15.9641 4.89455 16.354 4.91792 16.7384C4.92678 16.8838 5.04373 16.999 5.18915 17.0058C5.56961 17.0236 5.95452 17.0327 6.33312 17.0327C6.71168 17.0327 7.09656 17.0237 7.47702 17.0058C7.62244 16.999 7.73935 16.8838 7.74825 16.7384C7.77162 16.354 7.77162 15.9641 7.74825 15.5797C7.73939 15.4344 7.62248 15.319 7.47702 15.3122ZM7.19108 16.4471C6.61811 16.4676 6.04806 16.4676 5.47516 16.4471C5.46904 16.2553 5.46904 16.0628 5.47516 15.871C6.04844 15.8504 6.6178 15.8504 7.19108 15.871C7.1972 16.0628 7.1972 16.2553 7.19108 16.4471Z" fill="currentColor"/>
</g>
<defs>
<clipPath id="clip0">
<rect width="19.4595" height="18" fill="currentColor"/>
</clipPath>
</defs>
</svg>
