<svg width="50" height="50" viewBox="0 0 50 50" fill="none" xmlns="http://www.w3.org/2000/svg">
<g clip-path="url(#clip0)">
<path d="M37.7626 29.7271C34.2873 29.7271 31.4601 32.5543 31.4601 36.0296C31.4601 39.5049 34.2873 42.3321 37.7626 42.3321C41.2385 42.3321 44.0652 39.5049 44.0652 36.0296C44.0652 32.5543 41.2379 29.7271 37.7626 29.7271ZM37.7626 39.1809C36.0247 39.1809 34.6114 37.7675 34.6114 36.0296C34.6114 34.2917 36.0247 32.8783 37.7626 32.8783C39.5005 32.8783 40.9139 34.2917 40.9139 36.0296C40.9139 37.7676 39.5005 39.1809 37.7626 39.1809Z" fill="currentColor"/>
<path d="M16.229 29.7271C12.7537 29.7271 9.92645 32.5543 9.92645 36.0296C9.92645 39.5049 12.7537 42.3321 16.229 42.3321C19.7043 42.3321 22.5315 39.5049 22.5315 36.0296C22.5315 32.5543 19.7043 29.7271 16.229 29.7271ZM16.229 39.1809C14.4911 39.1809 13.0777 37.7675 13.0777 36.0296C13.0777 34.2917 14.4911 32.8783 16.229 32.8783C17.9664 32.8783 19.3803 34.2917 19.3803 36.0296C19.3803 37.7676 17.9669 39.1809 16.229 39.1809Z" fill="currentColor"/>
<path d="M42.0069 11.687C41.739 11.155 41.1944 10.8193 40.5988 10.8193H32.3004V13.9706H39.6271L43.9175 22.5042L46.7337 21.0882L42.0069 11.687Z" fill="currentColor"/>
<path d="M33.0357 34.5063H21.1135V37.6576H33.0357V34.5063Z" fill="currentColor"/>
<path d="M11.502 34.5063H6.03994C5.16963 34.5063 4.46436 35.2117 4.46436 36.0819C4.46436 36.9522 5.16973 37.6575 6.03994 37.6575H11.5021C12.3725 37.6575 13.0777 36.9521 13.0777 36.0819C13.0777 35.2116 12.3724 34.5063 11.502 34.5063Z" fill="currentColor"/>
<path d="M49.6691 24.8738L46.5699 20.8822C46.2722 20.4978 45.8126 20.2729 45.3257 20.2729H33.8761V9.24355C33.8761 8.37324 33.1707 7.66797 32.3005 7.66797H6.03994C5.16963 7.66797 4.46436 8.37334 4.46436 9.24355C4.46436 10.1138 5.16973 10.8191 6.03994 10.8191H30.7248V21.8485C30.7248 22.7188 31.4302 23.4241 32.3004 23.4241H44.5541L46.8487 26.38V34.5061H42.4895C41.6191 34.5061 40.9139 35.2114 40.9139 36.0816C40.9139 36.952 41.6192 37.6572 42.4895 37.6572H48.4243C49.2946 37.6572 49.9999 36.9519 50 36.0816V25.8402C50 25.4904 49.8834 25.1501 49.6691 24.8738Z" fill="currentColor"/>
<path d="M11.3971 26.5229H4.14913C3.27882 26.5229 2.57355 27.2283 2.57355 28.0985C2.57355 28.9688 3.27892 29.6741 4.14913 29.6741H11.397C12.2673 29.6741 12.9726 28.9688 12.9726 28.0985C12.9727 27.2283 12.2673 26.5229 11.3971 26.5229Z" fill="currentColor"/>
<path d="M15.021 20.3257H1.57559C0.705371 20.3257 0 21.0311 0 21.9014C0 22.7717 0.705371 23.477 1.57559 23.477H15.021C15.8913 23.477 16.5966 22.7716 16.5966 21.9014C16.5966 21.0312 15.8913 20.3257 15.021 20.3257Z" fill="currentColor"/>
<path d="M17.5945 14.1279H4.14913C3.27882 14.1279 2.57355 14.8333 2.57355 15.7035C2.57355 16.5738 3.27892 17.2791 4.14913 17.2791H17.5945C18.4649 17.2791 19.1701 16.5737 19.1701 15.7035C19.1702 14.8333 18.4649 14.1279 17.5945 14.1279Z" fill="currentColor"/>
</g>
<defs>
<clipPath id="clip0">
<rect width="50" height="50" fill="white"/>
</clipPath>
</defs>
</svg>
