<svg width="22" height="22" viewBox="0 0 22 22" fill="none" xmlns="http://www.w3.org/2000/svg">
<path d="M6.26208 16.2073L6.16932 15.7669C6.13262 15.5928 5.96178 15.4812 5.78745 15.518C5.61326 15.5547 5.50176 15.7256 5.53849 15.8998L5.63126 16.3402C5.66323 16.492 5.79717 16.5962 5.94635 16.5962C5.96835 16.5962 5.9907 16.5939 6.01313 16.5892C6.18732 16.5525 6.29878 16.3816 6.26208 16.2073Z" fill="currentColor"/>
<path d="M6.99493 19.686L6.5713 17.6751C6.5346 17.5009 6.36367 17.3896 6.18943 17.4261C6.01524 17.4628 5.90373 17.6338 5.94047 17.808L6.3641 19.8189C6.39607 19.9707 6.53001 20.0749 6.67919 20.0749C6.70119 20.0749 6.72354 20.0726 6.74597 20.0679C6.92016 20.0312 7.03171 19.8602 6.99493 19.686Z" fill="currentColor"/>
<path d="M9.87909 19.6638L9.60387 15.7446C9.59141 15.567 9.43724 15.4329 9.25974 15.4457C9.08215 15.4581 8.9483 15.6122 8.96076 15.7898L9.23598 19.709C9.24788 19.8789 9.38942 20.0088 9.55721 20.0088C9.56477 20.0088 9.57246 20.0085 9.58011 20.0079C9.7577 19.9955 9.89159 19.8414 9.87909 19.6638Z" fill="currentColor"/>
<path d="M12.8416 18.6049C12.6643 18.592 12.5099 18.7262 12.4974 18.9038L12.4425 19.6865C12.43 19.864 12.5638 20.0181 12.7414 20.0306C12.7491 20.0311 12.7568 20.0314 12.7643 20.0314C12.9321 20.0314 13.0736 19.9015 13.0856 19.7316L13.1405 18.949C13.153 18.7714 13.0191 18.6173 12.8416 18.6049Z" fill="currentColor"/>
<path d="M13.0618 15.4681C12.8847 15.4556 12.7301 15.5895 12.7177 15.7671L12.6025 17.4075C12.59 17.585 12.7239 17.7391 12.9015 17.7516C12.9092 17.7521 12.9168 17.7524 12.9244 17.7524C13.0921 17.7524 13.2337 17.6226 13.2456 17.4527L13.3608 15.8122C13.3733 15.6346 13.2394 15.4806 13.0618 15.4681Z" fill="currentColor"/>
<path d="M16.2194 15.4516C16.0451 15.4147 15.8742 15.5264 15.8375 15.7006L15.0119 19.6198C14.9751 19.794 15.0866 19.965 15.2608 20.0017C15.2833 20.0064 15.3056 20.0087 15.3276 20.0087C15.4768 20.0087 15.6107 19.9045 15.6427 19.7527L16.4683 15.8335C16.505 15.6593 16.3936 15.4883 16.2194 15.4516Z" fill="currentColor"/>
<path d="M20.6763 12.0278H19.015V8.80339C19.015 8.66581 18.9813 8.52857 18.9177 8.40658L18.2159 7.06097C18.4968 6.99041 18.7057 6.73647 18.7057 6.43393V5.95749C18.7057 5.60063 18.4155 5.31029 18.0586 5.31029H13.5948C13.238 5.31029 12.9476 5.60063 12.9476 5.95749V6.42916C12.8233 6.19261 12.6664 5.9718 12.4784 5.7735C12.0735 5.34639 11.8505 4.78706 11.8505 4.19852V3.88171C11.9394 3.80235 11.9957 3.68728 11.9957 3.55906V0.433082C11.9957 0.194262 11.8015 0 11.5627 0H9.62448C9.3857 0 9.19144 0.194262 9.19144 0.433039V3.55902C9.19144 3.68728 9.24781 3.8023 9.33667 3.88167V4.19848C9.33667 4.78702 9.11366 5.34634 8.70877 5.77345C8.18979 6.32083 7.90401 7.03768 7.90401 7.79195V10.4267L7.52369 8.20372C7.43208 7.66829 7.11153 7.20234 6.64416 6.9254C6.17684 6.64847 5.61424 6.59106 5.10055 6.76784L4.90066 6.83663C4.75208 5.86674 4.92821 4.8342 4.93044 4.82144C4.96121 4.64621 4.8442 4.47911 4.66893 4.44821C4.49358 4.41719 4.32643 4.53436 4.29549 4.70972C4.28647 4.76094 4.1341 5.64846 4.22365 6.60937L3.19944 3.63327C3.14152 3.46491 2.95805 3.37537 2.78974 3.43333C2.62138 3.49125 2.53188 3.67473 2.5898 3.84304L3.49988 6.48746C3.48024 6.45202 3.46031 6.41644 3.43985 6.3806C2.85213 5.3497 2.25203 4.71118 1.65618 4.48276C1.49002 4.41899 1.30353 4.50214 1.23981 4.66834C1.17609 4.83454 1.25919 5.02098 1.42539 5.08471C2.1382 5.35799 2.83949 6.54977 3.24847 7.40528L3.02048 7.48374C2.50683 7.66051 2.09871 8.05204 1.90076 8.55791C1.70284 9.06383 1.73692 9.6284 1.99421 10.1068L3.02744 12.0278H1.3236C0.944186 12.0278 0.635498 12.3365 0.635498 12.7159V13.6247C0.635498 14.0041 0.944186 14.3128 1.3236 14.3128H2.05768L3.49073 20.7944C3.64769 21.5043 4.26503 22 4.99197 22H17.0079C17.7349 22 18.3522 21.5043 18.5092 20.7944L19.9423 14.3128H20.6763C21.0558 14.3128 21.3644 14.0041 21.3644 13.6247V12.7159C21.3644 12.3365 21.0558 12.0278 20.6763 12.0278ZM18.3461 8.70478C18.362 8.73512 18.3703 8.76919 18.3703 8.80344V12.0278H17.8597V9.81806C17.8597 9.56721 17.6556 9.36306 17.4047 9.36306H14.2488C13.9979 9.36306 13.7938 9.56716 13.7938 9.81806V12.0278H13.2831V8.92203V8.80344C13.2831 8.76923 13.2915 8.73516 13.3073 8.70478L14.1542 7.08112H17.4992L18.3461 8.70478ZM17.2149 10.0077V12.0278H14.4385V10.0077H17.2149ZM13.5948 5.95504L18.0611 5.95753L18.0595 6.43638C18.0595 6.43638 18.0592 6.43642 18.0586 6.43642L13.5923 6.43393L13.5948 5.95504ZM13.4376 7.06097L13.2574 7.40644C13.2345 7.2325 13.1961 7.06209 13.1432 6.89657C13.2238 6.97529 13.3249 7.0327 13.4376 7.06097ZM9.8361 0.644703H11.351V3.34735H9.8361V0.644703ZM9.17657 6.21706C9.6955 5.66964 9.98133 4.95279 9.98133 4.19852V3.99205H11.2058V4.19852C11.2058 4.95279 11.4916 5.66968 12.0105 6.21706C12.4154 6.64413 12.6384 7.20345 12.6384 7.792V8.59968H10.1863C9.82815 8.59968 9.53678 8.89109 9.53678 9.24924V12.0278H8.54867V7.792H8.54862C8.54862 7.20345 8.77163 6.64413 9.17657 6.21706ZM12.6385 9.24443V12.0278H10.1815V9.24928C10.1815 9.24657 10.1837 9.24443 10.1864 9.24443H12.6385ZM2.84912 10.3352L2.562 9.80139C2.39447 9.48986 2.37225 9.12222 2.50116 8.79282C2.63002 8.46343 2.89578 8.20845 3.23025 8.09334L5.31033 7.37748C5.6448 7.26236 6.01119 7.29975 6.31545 7.48004C6.61976 7.66038 6.82854 7.96379 6.88818 8.31243L7.52382 12.0277H4.68217L5.2622 11.8281C5.43055 11.7702 5.52006 11.5867 5.46209 11.4184C5.40417 11.25 5.22074 11.1605 5.05239 11.2185L3.5942 11.7203L3.15862 10.9105L5.12964 10.2321C5.29799 10.1742 5.3875 9.99075 5.32953 9.82244C5.27161 9.65409 5.08818 9.56459 4.91983 9.62251L2.84912 10.3352ZM17.8797 20.6553C17.7885 21.0674 17.4301 21.3553 17.0079 21.3553H4.99197C4.56985 21.3553 4.21136 21.0674 4.12026 20.6553L2.71794 14.3128H19.282L17.8797 20.6553ZM20.7198 13.6247C20.7197 13.6486 20.7003 13.6681 20.6763 13.6681H1.3236C1.29967 13.6681 1.2802 13.6486 1.2802 13.6247V12.7159C1.2802 12.6919 1.29967 12.6725 1.3236 12.6725H20.6763C20.7003 12.6725 20.7197 12.6919 20.7197 12.7159V13.6247H20.7198Z" fill="currentColor"/>
</svg>
