<svg width="18" height="18" viewBox="0 0 18 18" fill="none" xmlns="http://www.w3.org/2000/svg">
<g clip-path="url(#clip0)">
<path d="M16.4982 4.19569H12.6898C13.1858 3.75585 13.4993 3.11445 13.4993 2.40095C13.4993 0.396592 11.177 -0.717001 9.61422 0.517188C9.48421 0.619828 9.46206 0.808425 9.56473 0.938393C9.66745 1.06844 9.85604 1.09052 9.98594 0.987876C11.1556 0.0641934 12.8995 0.895546 12.8995 2.40095C12.8995 3.35196 12.1578 4.13248 11.2225 4.19569H9.30071V2.40092C9.30071 1.078 8.22446 0.00173983 6.90154 0.00173983C5.57862 0.00173983 4.50236 1.078 4.50236 2.40092C4.50236 3.11445 4.81579 3.75581 5.31182 4.19565H1.50339C0.676575 4.19565 0.00390625 4.86832 0.00390625 5.69514V7.24099C0.00390625 7.99137 0.558003 8.61471 1.27847 8.72357V16.5007C1.27847 17.3275 1.95114 18.0002 2.77795 18.0002H15.2237C16.0505 18.0002 16.7232 17.3275 16.7232 16.5007V10.0483C16.7232 9.88267 16.5889 9.74839 16.4233 9.74839C16.2576 9.74839 16.1234 9.88267 16.1234 10.0483V16.5007C16.1234 16.9968 15.7197 17.4004 15.2237 17.4004H7.95117V8.74051H10.0505V16.3212C10.0505 16.4868 10.1847 16.6211 10.3504 16.6211C10.516 16.6211 10.6502 16.4868 10.6502 16.3212V8.74051H13.9866C14.1522 8.74051 14.2865 8.60624 14.2865 8.44062C14.2865 8.275 14.1522 8.14072 13.9866 8.14072H11.9998V4.79548H16.4982C16.9943 4.79548 17.3979 5.19907 17.3979 5.69517V7.24103C17.3979 7.73713 16.9943 8.14072 16.4982 8.14072H15.9172C15.7516 8.14072 15.6173 8.275 15.6173 8.44062C15.6173 8.60624 15.7516 8.74051 15.9172 8.74051H16.4982C17.3251 8.74051 17.9977 8.06785 17.9977 7.24103V5.69517C17.9977 4.86836 17.3251 4.19569 16.4982 4.19569ZM5.10215 2.40092C5.10215 1.40874 5.90933 0.601534 6.90154 0.601534C7.89374 0.601534 8.70092 1.40874 8.70092 2.40092V4.19565H6.7791C5.84387 4.13248 5.10215 3.35193 5.10215 2.40092ZM7.35138 17.4004H2.77795C2.28189 17.4004 1.87826 16.9968 1.87826 16.5007V8.74051H7.35138V17.4004ZM11.4 8.14072H1.50339C1.00732 8.14072 0.6037 7.73713 0.6037 7.24103V5.69517C0.6037 5.19907 1.00732 4.79548 1.50339 4.79548H6.00184V7.19931C6.00184 7.36492 6.13612 7.4992 6.30174 7.4992C6.46736 7.4992 6.60164 7.36492 6.60164 7.19931V4.79548H11.4V8.14072Z" fill="currentColor"/>
</g>
<defs>
<clipPath id="clip0">
<rect width="18" height="18" fill="white"/>
</clipPath>
</defs>
</svg>
