<svg width="22" height="22" viewBox="0 0 22 22" fill="none" xmlns="http://www.w3.org/2000/svg">
<path d="M21.999 17.8776C21.9988 17.8744 21.9988 17.8712 21.9985 17.868C21.9973 17.8552 21.9955 17.8427 21.9929 17.8305C21.9926 17.8293 21.9922 17.8281 21.9919 17.8269C21.9894 17.8156 21.9862 17.8046 21.9826 17.7939C21.9816 17.791 21.9805 17.7882 21.9794 17.7854C21.9758 17.7756 21.9717 17.7661 21.9672 17.7569C21.9664 17.7552 21.9659 17.7536 21.9651 17.7519L20.2415 14.3523V3.16756C20.2415 2.82356 19.9617 2.5437 19.6177 2.5437H2.38223C2.03822 2.5437 1.75837 2.82356 1.75837 3.16756V14.3522L0.0348477 17.7519C0.0340312 17.7535 0.0335156 17.7552 0.0327422 17.7568C0.0282305 17.7661 0.0241914 17.7756 0.0205391 17.7853C0.0194648 17.7881 0.0183906 17.7909 0.0174023 17.7938C0.01375 17.8046 0.0105703 17.8157 0.00803516 17.8269C0.00777734 17.8281 0.00739062 17.8292 0.00713281 17.8304C0.00451172 17.8427 0.00266406 17.8552 0.00150391 17.8679C0.00120312 17.8711 0.00120312 17.8744 0.00103125 17.8775C0.000601562 17.8842 0 17.8909 0 17.8976V18.7152C0 19.1238 0.332363 19.4561 0.740953 19.4561H21.259C21.6676 19.4561 22 19.1238 22 18.7152V17.8976C22 17.8909 21.9994 17.8842 21.999 17.8776ZM2.40294 3.18832H19.5971V14.1071H2.40294V3.18832ZM2.27859 14.7516H19.7214L21.153 17.5753H14.0726L13.7172 16.2867C13.6449 16.0244 13.4043 15.8412 13.1322 15.8412H8.86772C8.5956 15.8412 8.35502 16.0244 8.2827 16.2867L7.9273 17.5753H0.846957L2.27859 14.7516ZM13.404 17.5754H8.59598L8.89646 16.4858H13.1035L13.404 17.5754ZM21.3555 18.7151C21.3555 18.7683 21.3122 18.8115 21.259 18.8115H0.740953C0.687801 18.8115 0.644531 18.7683 0.644531 18.7151V18.2199H21.3555V18.7151Z" fill="currentColor"/>
<path d="M18.2469 9.16675C18.0688 9.16675 17.9246 9.31099 17.9246 9.48901V12.757H3.39453V9.48901C3.39453 9.31099 3.25029 9.16675 3.07227 9.16675C2.89425 9.16675 2.75 9.31099 2.75 9.48901V12.8962C2.75 13.1748 2.97666 13.4015 3.25536 13.4015H18.0638C18.3425 13.4015 18.5692 13.1749 18.5692 12.8962V9.48901C18.5691 9.31108 18.4249 9.16675 18.2469 9.16675Z" fill="currentColor"/>
<path d="M18.4041 3.87573H3.59569C3.31704 3.87573 3.09033 4.10239 3.09033 4.38109V7.78825C3.09033 7.96627 3.23458 8.11052 3.4126 8.11052C3.59062 8.11052 3.73486 7.96627 3.73486 7.78825V4.52026H18.2649V7.78825C18.2649 7.96627 18.4092 8.11052 18.5872 8.11052C18.7652 8.11052 18.9095 7.96627 18.9095 7.78825V4.38109C18.9095 4.10235 18.6828 3.87573 18.4041 3.87573Z" fill="currentColor"/>
</svg>
