<svg width="22" height="22" viewBox="0 0 22 22" fill="none" xmlns="http://www.w3.org/2000/svg">
<g clip-path="url(#clip0)">
<path d="M10.8466 12.628C10.6324 12.5261 10.3761 12.6169 10.2741 12.8311L10.2028 12.9808C10.1009 13.195 10.1918 13.4514 10.406 13.5534C10.4656 13.5818 10.5284 13.5952 10.5903 13.5952C10.7509 13.5952 10.9049 13.5049 10.9785 13.3502L11.0497 13.2005C11.1517 12.9863 11.0607 12.7299 10.8466 12.628Z" fill="currentColor"/>
<path d="M6.03238 10.1388C5.86463 9.971 5.59264 9.971 5.42489 10.1388C5.06877 10.4949 4.48925 10.4949 4.13308 10.1388C3.96533 9.971 3.69334 9.971 3.52559 10.1388C3.35784 10.3065 3.35784 10.5785 3.52559 10.7462C3.87115 11.0917 4.32507 11.2646 4.77899 11.2646C5.23291 11.2646 5.68679 11.0918 6.03234 10.7462C6.20009 10.5785 6.20009 10.3065 6.03238 10.1388Z" fill="currentColor"/>
<path d="M20.5124 1.14123C18.999 -0.372126 16.5397 -0.376508 15.0203 1.12714C14.546 0.891671 14.0425 0.689675 13.5116 0.523386C11.7698 -0.022188 10.3449 -0.00194973 10.2213 0.000757299C7.89107 0.00230417 5.85848 0.980058 4.91562 2.55327C4.79118 2.7609 4.6875 2.97609 4.60431 3.1975C4.16023 3.62036 2.15616 5.69149 2.15616 8.62824C2.15616 10.5843 1.21532 11.6055 0.654535 12.0402C0.444976 12.2026 0.331496 12.4577 0.351047 12.7224C0.370598 12.9873 0.520344 13.2231 0.751644 13.353C0.962965 13.4718 1.20062 13.5858 1.43042 13.6961C1.63362 13.7936 1.92237 13.9321 2.06318 14.0222V14.7873C2.06318 14.892 2.0432 14.9942 2.0038 15.0913L1.89728 15.3535C1.7514 15.7125 1.80511 16.1234 2.03662 16.4327V16.527C2.03662 16.8057 2.15934 17.0637 2.36375 17.2387V17.7431C2.36375 18.8239 3.24306 19.7033 4.32394 19.7033H5.59229C5.82952 19.7033 6.02185 19.5109 6.02185 19.2737C6.02185 19.0365 5.82952 18.8441 5.59229 18.8441H4.32394C3.71683 18.8441 3.22282 18.3502 3.22282 17.743V17.0019C3.22282 16.8298 3.12008 16.6744 2.96179 16.6068L2.94322 16.5989C2.91435 16.5866 2.8957 16.5583 2.8957 16.527V16.2845C2.8957 16.1882 2.8633 16.0946 2.80375 16.0189L2.72795 15.9225C2.67321 15.853 2.65993 15.7588 2.69323 15.6768L2.79975 15.4146C2.88105 15.2144 2.9223 15.0034 2.9223 14.7873V13.8728C2.9223 13.4589 2.50064 13.2566 1.80206 12.9215C1.61862 12.8335 1.42999 12.7429 1.26314 12.6537C1.954 12.0898 3.01532 10.8599 3.01532 8.62819C3.01532 7.01334 3.73415 5.66773 4.35775 4.80398C4.39183 5.55245 4.61823 6.33517 5.03722 7.11887C6.13967 9.18082 8.05951 10.0451 9.60213 10.7395C11.0699 11.4002 11.9006 11.816 11.9072 12.6806C11.9121 13.3154 11.7661 13.7826 11.4733 14.0689C11.1352 14.3995 10.6864 14.391 10.6837 14.3909C10.5395 14.3809 10.4044 14.4438 10.3166 14.5584C10.2288 14.6731 10.2088 14.8245 10.2561 14.9609C10.2687 14.9972 10.573 15.8601 11.2697 16.7008C12.1404 17.7516 13.2395 18.3061 14.465 18.3185L15.6192 21.7026C15.6801 21.8812 15.847 21.9936 16.0257 21.9936C16.0717 21.9936 16.1185 21.9861 16.1644 21.9704C16.389 21.8939 16.5089 21.6497 16.4323 21.4252L15.2956 18.0925C17.4386 16.9442 18.9453 15.1627 19.6635 12.9191C20.2361 11.1307 20.2635 9.12401 19.7797 7.22342C20.0447 7.06228 20.2904 6.86991 20.5123 6.64798C22.0306 5.12981 22.0306 2.65949 20.5124 1.14123ZM18.8454 12.6573C18.1713 14.763 16.7241 16.4209 14.6573 17.4567C13.6123 17.5036 12.7008 17.0718 11.9472 16.172C11.6434 15.8092 11.4235 15.4358 11.2795 15.1532C11.5246 15.0765 11.8061 14.9399 12.0595 14.6972C12.5353 14.2415 12.7731 13.5608 12.7664 12.6741C12.7552 11.2167 11.3949 10.6044 9.95482 9.95614C8.45693 9.28188 6.75919 8.51768 5.79484 6.71389C5.19577 5.59331 5.05475 4.52782 5.37405 3.59363C5.37538 3.59007 5.37663 3.58646 5.37787 3.58289C5.44787 3.38051 5.53918 3.18414 5.65262 2.99486C6.44182 1.67791 8.19465 0.859789 10.227 0.859789C10.2311 0.859789 10.2352 0.859746 10.2394 0.859617C10.2527 0.859187 11.6066 0.826831 13.2548 1.3431C15.4482 2.03021 17.064 3.31047 18.0571 5.14833C19.3123 7.47126 19.607 10.2783 18.8454 12.6573ZM19.5229 6.36482C19.3313 5.80635 19.0948 5.26164 18.8129 4.73995C18.1077 3.43508 17.089 2.36369 15.8113 1.56804C17.0024 0.569492 18.7855 0.629218 19.9049 1.74868C21.0882 2.93196 21.0882 4.8573 19.9049 6.04057C19.7858 6.15973 19.6582 6.26796 19.5229 6.36482Z" fill="currentColor"/>
<path d="M11.3684 20.1226L10.0226 17.7916L9.97705 16.1999C9.93898 14.8669 8.90794 13.7802 7.57879 13.672C6.60142 13.5924 5.66303 14.1344 5.24326 15.0205L5.22204 15.0653C4.66559 16.2399 5.06705 17.6607 6.15584 18.3705L7.49556 19.2438L8.95916 21.7788C9.03869 21.9166 9.18307 21.9936 9.33153 21.9936C9.40436 21.9936 9.47826 21.975 9.5459 21.936C9.75133 21.8174 9.82176 21.5547 9.70312 21.3492L8.40293 19.0972L8.92096 18.7981L9.43899 18.499L10.6243 20.552C10.7429 20.7575 11.0056 20.8279 11.2111 20.7093C11.4166 20.5908 11.487 20.3281 11.3684 20.1226ZM7.8299 18.4362L6.62505 17.6509C5.8945 17.1746 5.62513 16.2212 5.99848 15.4331L6.01971 15.3883C6.27005 14.8599 6.80965 14.5235 7.38822 14.5235C7.4284 14.5235 7.46875 14.5251 7.50918 14.5284C8.401 14.6009 9.09279 15.3302 9.11832 16.2245L9.15961 17.6685L7.8299 18.4362Z" fill="currentColor"/>
<path d="M12.0121 21.2667C11.9322 21.1868 11.8213 21.1409 11.7084 21.1409C11.595 21.1409 11.4846 21.1868 11.4047 21.2667C11.3247 21.3466 11.2788 21.4575 11.2788 21.5704C11.2788 21.6834 11.3248 21.7942 11.4047 21.8741C11.4845 21.954 11.595 22 11.7084 22C11.8213 22 11.9321 21.954 12.0121 21.8741C12.0919 21.7942 12.1379 21.6834 12.1379 21.5704C12.1379 21.4575 12.0919 21.3466 12.0121 21.2667Z" fill="currentColor"/>
<path d="M8.4919 2.51812C8.39861 2.30005 8.14621 2.19873 7.92802 2.29202C7.17044 2.61587 6.62405 3.16179 6.38948 3.82927C6.15444 4.49808 6.2427 5.24909 6.64472 6.001C6.7221 6.14576 6.87047 6.22809 7.02391 6.22809C7.09228 6.22809 7.16159 6.21171 7.22604 6.17725C7.43525 6.06541 7.51419 5.80514 7.40234 5.59589C7.11282 5.05435 7.04475 4.55578 7.2 4.11398C7.35379 3.67643 7.73225 3.30986 8.26575 3.08187C8.48386 2.98871 8.5851 2.73632 8.4919 2.51812Z" fill="currentColor"/>
<path d="M9.53972 1.97681L9.51565 1.97685C9.27847 1.97822 9.08721 2.17167 9.08863 2.40894C9.09001 2.64531 9.28208 2.83597 9.51815 2.83597C9.51901 2.83597 9.51987 2.83597 9.52072 2.83597L9.53972 2.83592C9.77695 2.83592 9.96928 2.6436 9.96928 2.40637C9.96928 2.16913 9.77695 1.97681 9.53972 1.97681Z" fill="#585E6F"/>
</g>
<defs>
<clipPath id="clip0">
<rect width="22" height="22" fill="white"/>
</clipPath>
</defs>
</svg>
