<svg width="22" height="22" viewBox="0 0 22 22" fill="none" xmlns="http://www.w3.org/2000/svg">
<g clip-path="url(#clip0)">
<path d="M9.53212 7.56232C9.53212 7.19221 9.29781 6.90234 8.9987 6.90234C8.69977 6.90234 8.46545 7.19221 8.46545 7.56232C8.46545 7.93242 8.6996 8.22229 8.9987 8.22229C9.29781 8.22229 9.53212 7.93242 9.53212 7.56232Z" fill="currentColor"/>
<path d="M13.004 8.22229C13.3031 8.22229 13.5374 7.93242 13.5374 7.56232C13.5374 7.19221 13.3031 6.90234 13.004 6.90234C12.7048 6.90234 12.4707 7.19221 12.4707 7.56232C12.4707 7.93242 12.7048 8.22229 13.004 8.22229Z" fill="currentColor"/>
<path d="M11.3441 9.78294C11.3773 9.78294 11.4111 9.78227 11.4455 9.78093C11.6247 9.77338 11.7641 9.62198 11.7565 9.44272C11.7491 9.26346 11.5984 9.12465 11.4185 9.1317C11.2598 9.13842 10.9804 9.12902 10.8941 8.99172C10.7828 8.81481 10.9109 8.39419 11.0326 8.16541C11.1173 8.00764 11.0583 7.81092 10.9005 7.72582C10.7425 7.64089 10.5455 7.69997 10.4604 7.85792C10.411 7.94939 9.98857 8.76932 10.3431 9.33597C10.5289 9.63289 10.8654 9.78294 11.3441 9.78294Z" fill="currentColor"/>
<path d="M9.33044 10.1262C9.18039 10.2248 9.1386 10.426 9.23695 10.5761C9.26297 10.6158 9.88769 11.5487 11.0012 11.5487C12.1145 11.5487 12.7394 10.6158 12.7654 10.5761C12.8634 10.4265 12.8218 10.2266 12.6728 10.1277C12.5237 10.0291 12.3225 10.07 12.2229 10.2186C12.2184 10.2253 11.7585 10.899 11.0012 10.899C10.2439 10.899 9.78397 10.2254 9.7801 10.2197C9.68175 10.0697 9.48033 10.0279 9.33044 10.1262Z" fill="currentColor"/>
<path d="M4.81815 21.3503H1.20307C1.23362 21.1294 1.28649 20.8219 1.37494 20.486C1.52953 19.8989 1.82595 19.1085 2.36003 18.6767C3.30367 17.9138 7.29523 15.7758 8.60947 15.079C8.84496 16.1835 9.8277 17.0145 11.0015 17.0145C12.175 17.0145 13.1579 16.1833 13.3934 15.0789C13.8851 15.3395 14.7505 15.8013 15.6856 16.3145C15.841 16.3996 16.0416 16.3411 16.1267 16.186C16.2129 16.0287 16.1555 15.8313 15.9982 15.7449C14.871 15.1262 13.8444 14.582 13.4473 14.3724V12.8576C13.5244 12.7879 13.5996 12.7151 13.6722 12.6374C14.0435 12.2394 14.3502 11.7429 14.5915 11.1528C14.7001 11.1721 14.807 11.1818 14.9116 11.1818C15.4301 11.1818 15.8898 10.9458 16.223 10.4943C16.8143 9.69233 16.9046 8.33898 16.4125 7.65484C16.3907 7.62445 16.3682 7.59559 16.3454 7.56772C16.9261 5.56716 16.7504 3.87224 15.8218 2.52745C14.4957 0.606618 12.0876 0.0555769 11.2717 0.00539077C10.1184 -0.0654405 9.30536 0.578755 8.946 0.937947C8.48174 0.669896 7.98223 0.615513 7.48641 0.782185C6.62284 1.07239 5.87357 2.03013 5.53083 3.28159C5.46067 3.53772 5.41266 3.84505 5.38832 4.19468C5.37574 4.3736 5.51068 4.52886 5.68961 4.54145C5.86803 4.5542 6.02379 4.41892 6.03638 4.23999C6.05786 3.933 6.09865 3.66814 6.1574 3.45313C6.43938 2.42339 7.04229 1.61672 7.69336 1.39785C8.07018 1.27129 8.44297 1.34632 8.80082 1.62125C8.94281 1.73052 9.14708 1.70316 9.25652 1.56133C9.26424 1.55159 10.0281 0.57993 11.2316 0.653782C11.911 0.695744 14.114 1.19744 15.2873 2.89655C16.0651 4.02314 16.2311 5.45638 15.7836 7.16086C15.6092 7.10077 15.4219 7.08533 15.2265 7.11588C15.2231 7.00795 15.2191 6.94417 15.2184 6.93461C15.2094 6.79764 15.1152 6.68099 14.9831 6.64356C11.4691 5.64571 9.92203 3.36199 9.90726 3.3395C9.84046 3.23795 9.72229 3.18222 9.60161 3.19498C9.48059 3.20774 9.37703 3.28713 9.33306 3.40043C8.5331 5.4589 6.90717 6.71053 6.89106 6.72278C6.81536 6.78002 6.76836 6.8678 6.76265 6.96264C6.76215 6.9712 6.7593 7.0239 6.75678 7.11303C6.56577 7.08617 6.38248 7.10346 6.21178 7.16388C6.12316 6.53815 6.06391 5.95992 6.03621 5.44127C6.02665 5.26218 5.87357 5.12438 5.69448 5.13428C5.51538 5.14385 5.37792 5.29693 5.38732 5.47602C5.42139 6.11132 5.50045 6.83004 5.62163 7.61287C5.61106 7.62664 5.60065 7.6404 5.59041 7.65467C5.09879 8.33814 5.18842 9.69082 5.77874 10.4926C6.11191 10.9453 6.57198 11.182 7.0913 11.182C7.19452 11.182 7.30027 11.1722 7.40769 11.1534C7.65425 11.7523 7.96796 12.2542 8.34679 12.655C8.41426 12.7263 8.48426 12.7931 8.55542 12.8576V14.3724C7.58779 14.8825 3.02588 17.303 1.95166 18.1714C0.688953 19.1924 0.522785 21.5542 0.516406 21.6543C0.504489 21.8389 0.655719 22 0.840518 22H4.81815C4.99758 22 5.1431 21.8547 5.1431 21.6752C5.1431 21.4958 4.99758 21.3503 4.81815 21.3503ZM15.1241 9.04561C15.1881 8.56809 15.2157 8.13169 15.226 7.78089C15.5692 7.6785 15.7572 7.85659 15.885 8.03417C16.1841 8.44976 16.1574 9.48856 15.7 10.1086C15.469 10.422 15.1708 10.5616 14.8111 10.5277C14.947 10.077 15.0519 9.58339 15.1241 9.04561ZM12.7976 14.5686C12.7976 15.5591 11.9919 16.3647 11.0015 16.3647C10.011 16.3647 9.20533 15.5591 9.20533 14.5686V13.3232C9.72968 13.6109 10.3291 13.7561 10.9979 13.7561H11.0132C11.6794 13.7539 12.2759 13.6082 12.7976 13.3222V14.5686ZM6.30191 10.1076C5.84554 9.48755 5.81919 8.44909 6.11779 8.034C6.29621 7.78609 6.4988 7.70284 6.7598 7.77552C6.77155 8.13186 6.80193 8.58068 6.87125 9.07297C6.94544 9.60035 7.05118 10.0853 7.18647 10.5284C6.82878 10.5603 6.53203 10.4201 6.30191 10.1076ZM7.40634 7.14223C7.78719 6.82601 8.94835 5.77562 9.71692 4.1507C10.3594 4.89963 11.9031 6.38541 14.5783 7.20165C14.5949 8.00261 14.5464 10.7493 13.196 12.1953C12.6343 12.7968 11.8991 13.1035 11.011 13.1063C10.1231 13.11 9.38593 12.8076 8.81995 12.2097C7.40819 10.7179 7.3904 7.81446 7.40634 7.14223Z" fill="currentColor"/>
<path d="M21.4865 21.6543C21.48 21.5542 21.3138 19.1923 20.0513 18.1714C19.635 17.8349 18.6543 17.2312 17.1363 16.377C16.98 16.289 16.7819 16.3444 16.6938 16.5007C16.6059 16.6571 16.6613 16.8552 16.8177 16.9431C18.6692 17.985 19.3758 18.4608 19.6427 18.6767C20.4297 19.313 20.7094 20.7021 20.7993 21.3503H6.11763C5.9382 21.3503 5.79285 21.4956 5.79285 21.6751C5.79285 21.8545 5.9382 22 6.11763 22H21.1622C21.3472 22 21.4984 21.8389 21.4865 21.6543Z" fill="currentColor"/>
</g>
<defs>
<clipPath id="clip0">
<rect width="22" height="22" rx="8" fill="currentColor"/>
</clipPath>
</defs>
</svg>
