<svg width="19" height="16" viewBox="0 0 19 16" fill="none" xmlns="http://www.w3.org/2000/svg">
<path d="M9.55038 2.14396C10.3056 2.14396 10.9579 1.66245 11.1922 0.954102C10.7451 1.07716 10.1753 1.15144 9.55038 1.15144C8.92552 1.15144 8.35569 1.07716 7.90869 0.954102C8.1429 1.66239 8.79514 2.14396 9.55038 2.14396Z" fill="currentColor"/>
<path d="M18.2459 3.01509C18.21 2.91444 18.1354 2.83168 18.0382 2.7866L14.7143 1.25216C14.0072 1.01264 13.2869 0.82345 12.5596 0.685168C12.534 0.680153 12.5085 0.677734 12.4834 0.677734C12.3033 0.677734 12.1421 0.802035 12.102 0.984328C11.8364 2.15359 10.8013 3.02901 9.55039 3.02901C8.29954 3.02901 7.26442 2.15365 6.99889 0.984328C6.9583 0.802035 6.79737 0.677734 6.61743 0.677734C6.5923 0.677734 6.56682 0.680153 6.54121 0.685168C5.81393 0.82345 5.09361 1.01264 4.38544 1.25216L1.06271 2.78654C0.964895 2.83162 0.889736 2.91439 0.855578 3.01503C0.820241 3.11685 0.826612 3.22676 0.876403 3.3228L2.3194 6.17058C2.38695 6.30573 2.52435 6.38685 2.66971 6.38685C2.70723 6.38685 2.74528 6.38142 2.7828 6.37015L4.3855 5.89513V15.4504C4.3855 15.6674 4.56254 15.8444 4.78011 15.8444H14.3208C14.5378 15.8444 14.7143 15.6674 14.7143 15.4504V5.89525L16.3182 6.37027C16.3557 6.38154 16.3937 6.38697 16.4311 6.38697C16.5762 6.38697 16.7131 6.30585 16.7816 6.17069L18.2251 3.32292C18.2737 3.22682 18.2807 3.11691 18.2459 3.01509Z" fill="currentColor"/>
</svg>
