<svg width="18" height="18" viewBox="0 0 18 18" fill="none" xmlns="http://www.w3.org/2000/svg">
<g clip-path="url(#clip0)">
<path d="M17.6014 10.2772C17.5276 10.1516 17.366 10.1096 17.2404 10.1834C17.1149 10.2572 17.0729 10.4187 17.1467 10.5443C17.3599 10.9073 17.4726 11.3223 17.4726 11.7444C17.4726 13.0535 16.4077 14.1184 15.0987 14.1184C13.7897 14.1184 12.7247 13.0535 12.7247 11.7444C12.7247 11.4114 12.7944 11.0842 12.9281 10.7829L13.6287 11.4491C13.6092 11.5462 13.5993 11.645 13.5993 11.7444C13.5993 12.5712 14.2719 13.2438 15.0987 13.2438C15.9254 13.2438 16.598 12.5712 16.598 11.7444C16.598 10.9177 15.9254 10.2451 15.0987 10.2451C14.9736 10.2451 14.8502 10.2609 14.7301 10.2914L14.0295 9.62516C14.3594 9.45806 14.7235 9.37052 15.0987 9.37052C15.6622 9.37052 16.2089 9.572 16.6379 9.93794C16.6875 9.98031 16.7484 10.001 16.8088 10.001C16.8834 10.001 16.9574 9.96959 17.0096 9.90845C17.1041 9.79767 17.0909 9.63121 16.9801 9.53674C16.4557 9.08948 15.7875 8.84318 15.0986 8.84318C14.5773 8.84318 14.0732 8.98106 13.6283 9.24357L13.3039 8.93508C13.7845 8.66167 14.34 8.50526 14.9314 8.50526C15.1064 8.50526 15.2827 8.51925 15.4557 8.54681C15.5327 8.55912 15.611 8.53672 15.6698 8.48575L16.5019 7.76522C16.6346 7.65033 16.7351 7.50714 16.7972 7.34739C17.0195 6.77617 17.0304 5.69782 16.6065 5.21382C15.4442 3.88615 13.7193 3.23263 11.7498 3.37325C11.2662 3.40785 10.9873 3.94226 11.2364 4.361L11.3523 4.5558H10.8021C10.6565 4.5558 10.5384 4.67386 10.5384 4.81948C10.5384 4.96509 10.6565 5.08315 10.8021 5.08315H11.6521C11.7747 5.35241 11.8325 5.64491 11.8219 5.93927C11.293 5.46885 10.6122 5.20672 9.88738 5.20672C8.93204 5.20672 8.05198 5.66544 7.50421 6.44071H5.607C5.4578 6.44071 5.31158 6.38924 5.19525 6.29579L3.26602 4.74575C3.21919 4.70814 3.16093 4.68764 3.10089 4.68764H1.52346C1.0858 4.68764 0.729738 5.0437 0.729738 5.48136C0.729738 5.73628 0.853383 5.97728 1.06045 6.12606L1.62798 6.53366C1.74614 6.61856 1.91099 6.5916 1.99596 6.4733C2.0809 6.35503 2.05386 6.19029 1.9356 6.10531L1.36811 5.69771C1.29857 5.64779 1.25708 5.5669 1.25708 5.48133C1.25708 5.33444 1.37658 5.21495 1.52346 5.21495H3.00807L4.86506 6.70691C5.07466 6.87531 5.3382 6.96805 5.60707 6.96805H7.60279L9.31025 7.62069L10.2501 7.97992C10.2011 8.00526 9.56739 8.5607 8.5377 8.5607H7.95867C7.37888 8.5607 6.8284 8.87229 6.53277 9.40723L6.09697 9.09419C6.09694 9.09416 6.09687 9.09412 6.0968 9.09409L2.65054 6.61881C2.5323 6.53387 2.36753 6.56087 2.28255 6.67914C2.19762 6.7974 2.22465 6.96218 2.34292 7.04712L5.46754 9.29139L4.89916 9.64102C4.36222 9.13157 3.64584 8.84311 2.90134 8.84311C1.30152 8.84314 0 10.1446 0 11.7444C0 13.3442 1.30152 14.6457 2.9013 14.6457C4.50109 14.6457 5.80257 13.3442 5.80257 11.7444C5.80257 11.4986 5.77114 11.2552 5.70976 11.0182L6.33389 10.6341V12.6109C6.33389 13.3646 6.94698 13.9777 7.70059 13.9777H8.971V14.1184H7.25077C7.10511 14.1184 6.98709 14.2364 6.98709 14.382C6.98709 14.5277 7.10511 14.6457 7.25077 14.6457H9.23467C9.38032 14.6457 9.49834 14.5277 9.49834 14.382V13.9777H11.9176C12.0138 13.9777 12.1023 13.9253 12.1486 13.8411C12.195 13.7569 12.1918 13.654 12.1403 13.5728C11.8059 13.0453 11.6292 12.4349 11.6292 11.8075C11.6292 11.1568 11.8184 10.5496 12.1447 10.0377L12.5272 10.4015C12.311 10.8147 12.1974 11.2747 12.1974 11.7444C12.1974 13.3442 13.4989 14.6457 15.0987 14.6457C16.6985 14.6457 18 13.3442 18 11.7444C18 11.2285 17.8622 10.7211 17.6014 10.2772ZM16.0707 11.7444C16.0707 12.2804 15.6347 12.7164 15.0987 12.7164C14.6304 12.7164 14.2384 12.3834 14.1469 11.9419L14.5481 12.3234C14.6973 12.4653 14.8929 12.5434 15.0987 12.5434C15.3166 12.5434 15.5276 12.4529 15.6778 12.295C15.8248 12.1404 15.9029 11.9377 15.8975 11.7243C15.8921 11.511 15.804 11.3125 15.6493 11.1655L15.2481 10.7839C15.7134 10.856 16.0707 11.2593 16.0707 11.7444ZM16.2973 5.69736C16.4961 6.13478 16.4349 6.88294 16.2934 7.18472C15.9377 7.12428 15.666 6.81389 15.666 6.44123C15.666 6.06756 15.9392 5.75653 16.2973 5.69736ZM9.88748 5.7341C10.5885 5.7341 11.2397 6.03332 11.6949 6.55975C11.4303 7.24631 10.913 7.48319 10.7639 7.61176L8.56441 6.77107L8.06277 6.57933C8.51435 6.04495 9.1755 5.7341 9.88748 5.7341ZM6.35333 9.92764C6.34929 9.95306 6.34528 9.98098 6.34205 10.01L3.99843 11.452C3.99758 11.4525 3.99674 11.453 3.99586 11.4536L3.20667 11.9391C3.07842 12.0165 2.91108 11.975 2.83377 11.8468C2.79496 11.7824 2.78459 11.707 2.80448 11.6345C2.82298 11.567 2.86618 11.51 2.92816 11.4727L3.75536 10.9638C3.75609 10.9633 3.75683 10.9629 3.75757 10.9625L4.99145 10.2035C4.99191 10.2032 4.9924 10.2029 4.99286 10.2026L5.93188 9.62498L6.35333 9.92764ZM2.38215 12.119C2.53188 12.3673 2.79601 12.5049 3.06728 12.5049C3.20832 12.5049 3.35127 12.4677 3.48103 12.3895L3.74425 12.2275C3.57634 12.5194 3.26152 12.7165 2.9013 12.7165C2.36535 12.7165 1.9293 12.2804 1.9293 11.7445C1.9293 11.2085 2.36535 10.7725 2.9013 10.7725C2.94905 10.7725 2.99626 10.7762 3.04277 10.783L2.65387 11.0223C2.47757 11.1285 2.35044 11.2964 2.29591 11.4949C2.23826 11.7049 2.26969 11.9324 2.38215 12.119ZM5.27527 11.7444C5.27527 13.0534 4.21031 14.1184 2.90134 14.1184C1.5923 14.1184 0.527344 13.0535 0.527344 11.7444C0.527344 10.4354 1.5923 9.37049 2.9013 9.37049C3.46286 9.37049 4.00447 9.57165 4.43 9.92961L3.61937 10.4283C3.39996 10.308 3.15489 10.2451 2.9013 10.2451C2.07454 10.2451 1.40196 10.9177 1.40196 11.7444C1.40196 12.5711 2.07457 13.2438 2.9013 13.2438C3.70104 13.2438 4.35642 12.6144 4.39843 11.825L5.23473 11.3104C5.26138 11.4533 5.27527 11.5983 5.27527 11.7444ZM11.4714 13.4504H7.70059C7.23776 13.4504 6.86123 13.0738 6.86123 12.611V10.1855C6.86123 9.63725 7.265 9.1875 7.77969 9.10295C8.24984 9.02455 9.30452 9.30626 10.4799 8.46412C11.3112 7.86837 12.0656 7.48805 12.2992 6.37096C12.3898 5.93801 12.3602 5.49448 12.219 5.08322H12.5314C12.677 5.08322 12.795 4.96516 12.795 4.81955C12.795 4.67393 12.677 4.55587 12.5314 4.55587H11.966L11.6897 4.09142C11.6421 4.01137 11.6934 3.90605 11.7875 3.8993C13.4307 3.78184 14.8822 4.2633 15.9221 5.26055C15.4622 5.45528 15.1387 5.91122 15.1387 6.44127C15.1387 6.95592 15.4439 7.4004 15.8826 7.60406L15.4156 8.00846C15.2551 7.98818 15.0928 7.97791 14.9315 7.97791C12.822 7.97791 11.1019 9.69122 11.1019 11.8076C11.1019 12.3796 11.2287 12.9396 11.4714 13.4504ZM12.8584 9.23911L13.4141 9.76761C13.4144 9.76782 13.4146 9.76807 13.4149 9.76828L15.2859 11.5476C15.3385 11.5976 15.3684 11.6651 15.3703 11.7376C15.3721 11.8101 15.3456 11.879 15.2956 11.9317C15.2438 11.9861 15.1738 12.0161 15.0986 12.0161C15.0286 12.0161 14.9622 11.9895 14.9115 11.9413L13.0408 10.1623C13.0402 10.1618 13.0397 10.1613 13.0391 10.1607L12.4648 9.61458C12.5855 9.47894 12.7172 9.35333 12.8584 9.23911Z" fill="currentColor"/>
<path d="M8.99948 11.978H8.24219C8.09653 11.978 7.97852 12.096 7.97852 12.2417C7.97852 12.3874 8.09653 12.5054 8.24219 12.5054H8.99948C9.14513 12.5054 9.26315 12.3874 9.26315 12.2417C9.26315 12.096 9.14513 11.978 8.99948 11.978Z" fill="currentColor"/>
</g>
<defs>
<clipPath id="clip0">
<rect width="18" height="18" fill="white"/>
</clipPath>
</defs>
</svg>
