<svg width="18" height="18" viewBox="0 0 18 18" fill="none" xmlns="http://www.w3.org/2000/svg">
<g clip-path="url(#clip0)">
<path d="M14.5279 10.0484H12.4637C14.3906 7.96936 14.4863 5.06197 14.4294 3.84613C14.4196 3.63611 14.2896 3.4572 14.0903 3.37911C13.8877 3.2997 13.6576 3.34624 13.5039 3.49755L11.5968 5.37553C11.4931 5.4777 11.4918 5.64462 11.594 5.7484C11.6962 5.85211 11.8631 5.85337 11.9669 5.75125L13.8739 3.87327C13.8771 3.87011 13.8801 3.86722 13.8873 3.86796C13.8939 3.8681 13.8997 3.87053 13.9027 3.8725C13.9596 5.09252 13.8564 8.11164 11.714 10.0484H10.3725C10.3956 9.99995 10.4178 9.95119 10.4399 9.90236C10.9576 9.37986 11.9302 8.31052 12.5744 7.06637C12.6413 6.93707 12.5908 6.77795 12.4614 6.71101C12.3322 6.64404 12.1731 6.69452 12.1061 6.82393C11.7611 7.49014 11.3077 8.11209 10.8898 8.61694C11.0419 8.0157 11.1205 7.39891 11.1205 6.78217C11.1205 4.38796 9.9703 1.45832 9.47579 0.309867C9.39469 0.121605 9.20769 0 8.99932 0C8.79095 0 8.60395 0.121605 8.52288 0.309832C8.02838 1.45828 6.87817 4.38799 6.87817 6.78213C6.87817 7.39884 6.95681 8.01566 7.1088 8.6169C6.69093 8.11206 6.23755 7.49014 5.89257 6.82393C5.82559 6.69459 5.66641 6.64411 5.53721 6.71101C5.40787 6.77795 5.35735 6.9371 5.42428 7.06637C6.06849 8.31052 7.04112 9.37986 7.55872 9.90236C7.5808 9.95119 7.60306 9.99995 7.62619 10.0484H6.28459C4.14273 8.11213 4.03909 5.09407 4.09594 3.87246C4.099 3.87049 4.10473 3.8681 4.11127 3.86796C4.11791 3.86715 4.12146 3.87014 4.12466 3.87327L6.03453 5.75395C6.13824 5.85608 6.30519 5.85485 6.40739 5.75111C6.50956 5.64732 6.50829 5.4804 6.40455 5.37824L4.49465 3.49755C4.34105 3.34628 4.11085 3.29973 3.90835 3.37911C3.70898 3.4572 3.57904 3.63614 3.56923 3.84609C3.51235 5.06197 3.60804 7.96939 5.53492 10.0484H3.47079C2.90963 10.0484 2.45312 10.5049 2.45312 11.066C2.45312 11.6272 2.90963 12.0837 3.47079 12.0837H3.67245L4.85282 17.1454C4.97014 17.6486 5.41293 18 5.92962 18H12.0691C12.5857 18 13.0285 17.6486 13.1459 17.1454L14.3262 12.0837H14.5279C15.089 12.0837 15.5456 11.6272 15.5456 11.066C15.5455 10.5049 15.089 10.0484 14.5279 10.0484ZM8.99932 0.536836C9.48511 1.66785 10.5931 4.49852 10.5931 6.78217C10.5931 8.17791 10.1689 9.30895 9.78355 10.0484H9.26299V4.92145C9.26299 4.7758 9.14497 4.65778 8.99932 4.65778C8.85367 4.65778 8.73565 4.7758 8.73565 4.92145V10.0484H8.21509C7.82971 9.30888 7.40551 8.17784 7.40551 6.78213C7.40551 4.49863 8.5135 1.66781 8.99932 0.536836ZM14.5279 11.5564H6.27475C6.1291 11.5564 6.01108 11.6744 6.01108 11.82C6.01108 11.9657 6.1291 12.0837 6.27475 12.0837H13.7848L12.6323 17.0256C12.5709 17.2888 12.3393 17.4727 12.0691 17.4727H5.92962C5.65934 17.4727 5.42776 17.2888 5.36638 17.0256L4.21393 12.0837H5.04221C5.18786 12.0837 5.30588 11.9657 5.30588 11.82C5.30588 11.6744 5.18786 11.5564 5.04221 11.5564H3.47079C3.20044 11.5564 2.98047 11.3364 2.98047 11.066C2.98047 10.7957 3.20044 10.5757 3.47079 10.5757H14.5279C14.7982 10.5757 15.0182 10.7957 15.0182 11.066C15.0182 11.3364 14.7982 11.5564 14.5279 11.5564Z" fill="currentColor"/>
</g>
<defs>
<clipPath id="clip0">
<rect width="18" height="18" fill="white"/>
</clipPath>
</defs>
</svg>
