<svg width="14" height="14" viewBox="0 0 14 14" fill="none" xmlns="http://www.w3.org/2000/svg">
<path d="M10.6021 7.6098L6.15199 3.15975C6.04907 3.05675 5.91167 3 5.76517 3C5.61866 3 5.48127 3.05675 5.37834 3.15975L5.05062 3.48739C4.83737 3.70089 4.83737 4.04788 5.05062 4.26105L8.7875 7.99793L5.04647 11.739C4.94355 11.842 4.88672 11.9793 4.88672 12.1257C4.88672 12.2723 4.94355 12.4096 5.04647 12.5127L5.37419 12.8402C5.4772 12.9433 5.61452 13 5.76102 13C5.90752 13 6.04492 12.9433 6.14785 12.8402L10.6021 8.38614C10.7053 8.2828 10.762 8.14484 10.7616 7.99817C10.762 7.85094 10.7053 7.71305 10.6021 7.6098Z" fill="currentColor"/>
</svg>
