<svg width="22" height="22" viewBox="0 0 22 22" fill="none" xmlns="http://www.w3.org/2000/svg">
<g clip-path="url(#clip0)">
<path d="M9.11182 5.48267C9.11182 5.30469 8.96757 5.1604 8.78955 5.1604C8.61153 5.1604 8.46729 5.30469 8.46729 5.48267V6.35811C8.46729 6.53609 8.61153 6.68038 8.78955 6.68038C8.96757 6.68038 9.11182 6.53609 9.11182 6.35811V5.48267Z" fill="currentColor"/>
<path d="M13.2104 5.1604C13.0324 5.1604 12.8882 5.30469 12.8882 5.48267V6.35811C12.8882 6.53609 13.0324 6.68038 13.2104 6.68038C13.3885 6.68038 13.5327 6.53609 13.5327 6.35811V5.48267C13.5327 5.30469 13.3885 5.1604 13.2104 5.1604Z" fill="currentColor"/>
<path d="M12.2532 6.9971C11.8316 6.79849 10.1683 6.79849 9.74672 6.9971C9.42148 7.15033 9.20306 7.43625 9.13173 7.80222C9.07381 8.09931 9.11472 8.43057 9.24689 8.73492C9.43003 9.15667 9.76215 9.47971 10.2074 9.66921C10.3588 9.73362 10.517 9.77831 10.6777 9.80401V10.2696C10.6777 10.4476 10.822 10.5919 11 10.5919C11.178 10.5919 11.3223 10.4476 11.3223 10.2696V9.80401C11.483 9.77831 11.6412 9.73362 11.7926 9.66921C12.2378 9.47976 12.5699 9.15667 12.7531 8.73496C12.8852 8.43061 12.9261 8.09936 12.8682 7.80226C12.7969 7.43629 12.5785 7.15033 12.2532 6.9971ZM12.1618 8.47822C12.044 8.74953 11.8349 8.95071 11.5402 9.0761C11.197 9.2222 10.8032 9.22224 10.4597 9.0761C10.1651 8.95071 9.9559 8.74953 9.83812 8.47818C9.72051 8.2073 9.67225 7.74464 10.0212 7.58028C10.1492 7.52236 10.5746 7.4934 10.9999 7.4934C11.4252 7.4934 11.8504 7.52236 11.9786 7.58024C12.3277 7.74473 12.2794 8.20734 12.1618 8.47822Z" fill="currentColor"/>
<path d="M18.9124 3.78936C19.1685 3.01255 19.0293 2.14873 18.5305 1.41927C17.9685 0.597304 17.0285 0.055498 16.0775 0.0052664C14.6433 -0.0701885 13.8936 0.676669 13.3193 1.50727C12.594 1.28426 11.8132 1.1624 11 1.1624C10.1858 1.1624 9.40432 1.28452 8.67826 1.508C8.36587 1.05876 8.03461 0.673962 7.60702 0.402823C7.45675 0.307473 7.25763 0.352032 7.16224 0.502341C7.06693 0.652649 7.11149 0.851771 7.2618 0.947121C7.55709 1.13443 7.80782 1.4078 8.04703 1.73334C6.51065 2.36057 5.28364 3.46111 4.62195 4.81509C4.21378 4.51348 3.87759 4.12697 3.69974 3.58757C3.50418 2.9945 3.61135 2.35369 4.00147 1.78314C4.45261 1.12338 5.2017 0.688829 5.95586 0.648996L5.98336 0.647664C6.16122 0.639672 6.29885 0.489063 6.29086 0.311254C6.28286 0.133445 6.13213 -0.0039721 5.95449 0.00376246L5.92243 0.00530937C4.97147 0.055498 4.03151 0.597304 3.46946 1.41927C2.97071 2.14873 2.83149 3.01255 3.08759 3.78931C3.2648 4.32674 3.56816 4.77401 4.01505 5.15661C4.12415 5.25003 4.24167 5.3388 4.36882 5.42534C4.18388 5.96182 4.0841 6.52949 4.0841 7.11698C4.0841 8.45626 4.60068 9.69331 5.47082 10.6891C4.67167 11.2685 4.15401 12.0169 3.99962 12.8281C3.84179 13.6573 4.11405 14.4569 4.76715 15.0962C4.70605 15.4112 4.6547 15.7888 4.63429 16.2233C4.61418 16.6509 4.62724 17.0698 4.66578 17.4774C4.06232 17.9456 3.67653 18.656 3.67653 19.4502C3.67653 20.8352 4.84956 21.9651 6.30495 21.9994C6.3129 22 15.6843 22.0001 15.6909 21.9997C16.3118 21.9858 16.91 21.77 17.3817 21.3874C17.5199 21.2752 17.5411 21.0723 17.429 20.934C17.3169 20.7958 17.114 20.7747 16.9757 20.8868C16.6023 21.1897 16.1233 21.3565 15.6271 21.3565C14.4957 21.3565 13.5753 20.5014 13.5753 19.4502C13.5753 19.2985 13.5946 19.1509 13.6309 19.0093C13.9277 18.7735 14.1951 18.5561 14.3942 18.3852C14.6847 18.1359 14.9461 17.8703 15.1775 17.5903C15.3222 17.56 15.4727 17.544 15.6271 17.544C16.7585 17.544 17.6789 18.3991 17.6789 19.4502C17.6789 19.5705 17.6668 19.6907 17.643 19.8075C17.6074 19.9819 17.72 20.1521 17.8943 20.1877C18.0689 20.2231 18.239 20.1107 18.2746 19.9364C18.307 19.7772 18.3235 19.6137 18.3235 19.4502C18.3235 18.6554 17.9371 17.9445 17.3328 17.4763C17.3776 17.0039 17.3827 16.5827 17.3658 16.2233C17.3456 15.7943 17.2953 15.4207 17.2352 15.1081C17.8845 14.4722 18.1563 13.6765 18.0017 12.8502C17.8486 12.0318 17.3289 11.279 16.5232 10.696C17.397 9.69907 17.9159 8.45935 17.9159 7.11702C17.9159 6.52924 17.816 5.96122 17.6309 5.42448C18.1826 5.0476 18.6651 4.53926 18.9124 3.78936ZM4.63282 12.9487C4.79658 12.0882 5.44302 11.4924 5.92544 11.1572C6.14961 11.3657 6.39093 11.5604 6.64716 11.7398C6.59555 11.7833 6.54481 11.8279 6.49612 11.8748C6.37886 11.9877 6.19576 12.1354 6.16298 12.3074C6.1381 12.424 6.17879 12.5499 6.27895 12.6285C6.34319 12.6788 6.42054 12.7006 6.49608 12.6963C6.87666 12.7522 7.26532 12.8529 7.65248 12.997C8.26214 13.2238 9.09412 13.6057 9.28056 14.2995C9.41218 14.7893 9.08995 15.3758 8.60461 15.53C7.6206 15.8427 6.17608 15.4901 5.31609 14.7272C4.91724 14.3735 4.475 13.7778 4.63282 12.9487ZM6.33163 16.9005C5.95986 16.9058 5.60622 16.9825 5.28519 17.117C5.26689 16.813 5.26607 16.5359 5.27647 16.2904C5.2879 16.0203 5.31256 15.7742 5.34419 15.5537C5.49742 15.6528 5.65873 15.7429 5.82592 15.8232C5.9104 16.0652 6.00558 16.2857 6.0999 16.4778C6.17041 16.6214 6.24793 16.7623 6.33163 16.9005ZM6.37288 21.3566C5.24149 21.3566 4.32104 20.5014 4.32104 19.4503C4.32104 18.3992 5.24149 17.544 6.37288 17.544C6.52758 17.544 6.6781 17.5606 6.82304 17.591C7.0543 17.8708 7.31551 18.1361 7.60582 18.3852C7.80494 18.5561 8.07238 18.7736 8.36922 19.0093C8.40553 19.1509 8.42478 19.2985 8.42478 19.4502C8.42473 20.5014 7.50432 21.3566 6.37288 21.3566ZM13.8381 21.3566H8.16189C8.69196 20.9109 9.03542 20.2711 9.06644 19.5561C9.67215 20.0261 10.2805 20.4876 10.6278 20.7498C10.7374 20.8325 10.8686 20.8738 11 20.8738C11.1313 20.8738 11.2626 20.8325 11.3722 20.7498C11.7195 20.4876 12.3278 20.0261 12.9335 19.5561C12.9646 20.2711 13.308 20.9109 13.8381 21.3566ZM15.3216 16.1936C15.0138 16.8203 14.5606 17.3931 13.9744 17.8962C13.2503 18.5175 11.5357 19.8186 11 20.2232C10.4641 19.8185 8.74954 18.5175 8.02554 17.8962C7.43935 17.3931 6.98611 16.8203 6.67827 16.1936C6.66796 16.1726 6.65765 16.1503 6.64729 16.1285C7.0332 16.2325 7.42835 16.2876 7.80868 16.2876C8.15772 16.2876 8.49443 16.2413 8.79969 16.1444C9.60649 15.888 10.122 14.9478 9.90294 14.1323C9.63919 13.1508 8.62046 12.6696 7.87713 12.393C7.63276 12.3021 7.38736 12.227 7.14286 12.1671C7.57707 11.8312 8.12064 11.6422 8.67129 11.6422H8.67722C9.46671 11.6441 10.1919 12.0065 10.6668 12.6363C10.7453 12.7403 10.8698 12.8024 10.9999 12.8024C11.13 12.8024 11.2545 12.7403 11.3331 12.6362C11.808 12.0064 12.5331 11.6441 13.3226 11.6422H13.3285C13.8846 11.6422 14.4338 11.8347 14.8701 12.1769C14.6222 12.2364 14.3733 12.3114 14.1254 12.4027C13.5905 12.5998 12.913 12.9022 12.4751 13.4209C12.3038 13.6238 12.1692 13.8599 12.0941 14.1357C11.8725 14.9504 12.3851 15.8923 13.191 16.1512C13.4997 16.2503 13.8404 16.2976 14.1941 16.2976C14.5716 16.2976 14.9636 16.2434 15.3467 16.1411C15.3384 16.1587 15.33 16.1766 15.3216 16.1936ZM16.714 17.1167C16.3932 16.9824 16.0398 16.9058 15.6684 16.9005C15.7521 16.7623 15.8296 16.6214 15.9001 16.4778C15.9926 16.2896 16.086 16.0742 16.1693 15.8379C16.3383 15.7571 16.5015 15.6665 16.6563 15.5667C16.7158 15.9919 16.7491 16.5131 16.714 17.1167ZM17.3681 12.9687C17.5233 13.7983 17.0791 14.3927 16.6793 14.7451C15.8168 15.5053 14.3713 15.8533 13.3882 15.5375C12.9033 15.3818 12.583 14.7943 12.7161 14.3049C12.9048 13.6116 13.7379 13.2325 14.3482 13.0076C14.7562 12.8572 15.1658 12.7543 15.5657 12.7017C15.662 12.689 15.7488 12.6322 15.7992 12.5492C15.8712 12.4305 15.8612 12.2849 15.7757 12.1759C15.692 12.0692 15.6006 11.968 15.5038 11.8748C15.4551 11.8279 15.4044 11.7834 15.3529 11.7399C15.6064 11.5623 15.8453 11.3698 16.0675 11.1637C16.5621 11.5065 17.2066 12.1053 17.3681 12.9687ZM14.7759 11.3537C14.331 11.123 13.832 10.9977 13.3286 10.9977C13.3261 10.9977 13.3236 10.9977 13.3211 10.9977C12.4239 10.9999 11.5927 11.3721 11 12.0283C10.4073 11.3721 9.57607 10.9999 8.6789 10.9977C8.67636 10.9977 8.67396 10.9977 8.67142 10.9977C8.16803 10.9977 7.66915 11.123 7.22433 11.3535C5.70956 10.3833 4.72865 8.84548 4.72865 7.11698C4.72865 4.18897 7.54196 1.8069 11 1.8069C14.458 1.8069 17.2713 4.18897 17.2713 7.11698C17.2713 8.84548 16.2906 10.3834 14.7759 11.3537ZM17.3766 4.81195C16.7146 3.45939 15.4883 2.3601 13.9531 1.73334C14.4877 1.0053 15.0354 0.595757 16.0435 0.64891C16.7983 0.688743 17.5473 1.12334 17.9985 1.7831C18.3886 2.35365 18.4958 2.99446 18.3002 3.58753C18.1718 3.977 17.9575 4.38779 17.3766 4.81195Z" fill="currentColor"/>
</g>
<defs>
<clipPath id="clip0">
<rect width="22" height="22" fill="white"/>
</clipPath>
</defs>
</svg>
