<svg width="18" height="18" viewBox="0 0 18 18" fill="none" xmlns="http://www.w3.org/2000/svg">
<path d="M17.9992 14.627C17.999 14.6243 17.999 14.6217 17.9988 14.6191C17.9978 14.6087 17.9963 14.5984 17.9942 14.5884C17.994 14.5874 17.9936 14.5864 17.9934 14.5855C17.9913 14.5763 17.9888 14.5673 17.9857 14.5585C17.9849 14.5561 17.984 14.5538 17.9832 14.5515C17.9802 14.5435 17.9769 14.5358 17.9732 14.5282C17.9725 14.5269 17.9721 14.5255 17.9715 14.5242L16.5613 11.7427V2.59149C16.5613 2.31003 16.3323 2.08105 16.0508 2.08105H1.9491C1.66764 2.08105 1.43866 2.31003 1.43866 2.59149V11.7426L0.0285117 14.5241C0.0278437 14.5255 0.0274219 14.5268 0.0267891 14.5282C0.0230977 14.5357 0.019793 14.5435 0.0168047 14.5514C0.0159258 14.5538 0.0150469 14.5561 0.0142383 14.5584C0.01125 14.5673 0.00864844 14.5763 0.00657422 14.5855C0.00636328 14.5864 0.00604687 14.5874 0.00583594 14.5883C0.00369141 14.5984 0.00217969 14.6086 0.00123047 14.6191C0.000984375 14.6217 0.000984375 14.6243 0.00084375 14.6269C0.000492188 14.6324 0 14.6378 0 14.6434V15.3123C0 15.6466 0.271934 15.9185 0.606234 15.9185H17.3938C17.7281 15.9185 18 15.6466 18 15.3123V14.6434C18 14.6378 17.9995 14.6324 17.9992 14.627ZM1.96604 2.60847H16.034V11.542H1.96604V2.60847ZM1.8643 12.0693H16.1357L17.307 14.3797H11.514L11.2232 13.3254C11.164 13.1107 10.9672 12.9608 10.7445 12.9608H7.25541C7.03276 12.9608 6.83592 13.1107 6.77675 13.3253L6.48598 14.3797H0.692965L1.8643 12.0693ZM10.9669 14.3797H7.03308L7.27893 13.4882H10.7211L10.9669 14.3797ZM17.4727 15.3122C17.4727 15.3557 17.4373 15.3911 17.3938 15.3911H0.606234C0.562746 15.3911 0.527344 15.3557 0.527344 15.3122V14.907H17.4727V15.3122Z" fill="currentColor"/>
<path d="M14.9292 7.5C14.7836 7.5 14.6656 7.61802 14.6656 7.76367V10.4375H2.77734V7.76367C2.77734 7.61802 2.65932 7.5 2.51367 7.5C2.36802 7.5 2.25 7.61802 2.25 7.76367V10.5514C2.25 10.7793 2.43545 10.9648 2.66347 10.9648H14.7795C15.0075 10.9648 15.1929 10.7794 15.1929 10.5514V7.76367C15.1929 7.61809 15.0749 7.5 14.9292 7.5Z" fill="currentColor"/>
<path d="M15.0587 3.17114H2.94277C2.71478 3.17114 2.5293 3.35659 2.5293 3.58462V6.37229C2.5293 6.51795 2.64732 6.63597 2.79297 6.63597C2.93862 6.63597 3.05664 6.51795 3.05664 6.37229V3.69849H14.9449V6.37229C14.9449 6.51795 15.0629 6.63597 15.2085 6.63597C15.3542 6.63597 15.4722 6.51795 15.4722 6.37229V3.58462C15.4722 3.35656 15.2868 3.17114 15.0587 3.17114Z" fill="currentColor"/>
</svg>
