<svg width="24" height="24" viewBox="0 0 24 24" fill="none" xmlns="http://www.w3.org/2000/svg">
<path d="M13.5169 10.7963C14.5994 10.0129 15.3077 8.74277 15.3077 7.30769C15.3077 4.93292 13.3754 3 11 3C8.62462 3 6.69231 4.93292 6.69231 7.30769C6.69231 8.74277 7.40062 10.0129 8.48308 10.7963C5.30277 11.8542 3 14.8535 3 18.3846C3 18.7249 3.27569 19 3.61538 19H18.3846C18.7243 19 19 18.7249 19 18.3846C19 14.8535 16.6972 11.8542 13.5169 10.7963ZM7.92308 7.30769C7.92308 5.61108 9.30338 4.23077 11 4.23077C12.6966 4.23077 14.0769 5.61108 14.0769 7.30769C14.0769 9.00431 12.6966 10.3846 11 10.3846C9.30338 10.3846 7.92308 9.00431 7.92308 7.30769ZM4.25846 17.7692C4.57046 14.3237 7.47446 11.6154 11 11.6154C14.5255 11.6154 17.4295 14.3237 17.7415 17.7692H4.25846Z" fill="currentColor"/>
</svg>
