<svg width="22" height="22" viewBox="0 0 22 22" fill="none" xmlns="http://www.w3.org/2000/svg">
<g clip-path="url(#clip0)">
<path d="M17.3038 9.9095C17.3038 9.37643 16.8701 8.9427 16.337 8.9427C15.804 8.9427 15.3702 9.37643 15.3702 9.9095C15.3702 11.9099 14.0192 13.6006 12.1817 14.1173V13.2162C13.0398 12.9391 13.7673 12.3689 14.2454 11.6239C14.6301 11.0245 14.8533 10.3121 14.8533 9.54856V9.54852C14.8533 9.28258 14.8533 4.13583 14.8533 3.85335C14.8533 3.06406 14.6153 2.30471 14.165 1.65748C14.0634 1.51143 13.8625 1.47538 13.7164 1.577C13.5703 1.67862 13.5343 1.8795 13.6359 2.02555C14.0048 2.55574 14.2021 3.17642 14.2082 3.82237H12.062C11.884 3.82237 11.7397 3.96662 11.7397 4.14464C11.7397 4.32266 11.884 4.4669 12.062 4.4669H14.2088V5.35403H12.062C11.884 5.35403 11.7397 5.49828 11.7397 5.6763C11.7397 5.85432 11.884 5.99857 12.062 5.99857H14.2088V6.8857H12.062C11.884 6.8857 11.7397 7.02994 11.7397 7.20796C11.7397 7.38598 11.884 7.53023 12.062 7.53023H14.2088V8.34732H7.79125V7.53023H9.93805C10.1161 7.53023 10.2603 7.38598 10.2603 7.20796C10.2603 7.02994 10.1161 6.8857 9.93805 6.8857H7.79125V5.99857H9.93805C10.1161 5.99857 10.2603 5.85432 10.2603 5.6763C10.2603 5.49828 10.1161 5.35403 9.93805 5.35403H7.79125V4.4669H9.93805C10.1161 4.4669 10.2603 4.32266 10.2603 4.14464C10.2603 3.96662 10.1161 3.82237 9.93805 3.82237H7.79202C7.80878 2.06731 9.2411 0.644531 11 0.644531C11.5801 0.644531 12.1487 0.801625 12.6445 1.09884C12.7972 1.19028 12.995 1.14082 13.0866 0.988152C13.1781 0.835484 13.1286 0.63757 12.9759 0.546047C12.38 0.188848 11.6968 0 11 0C8.87531 0 7.14672 1.72859 7.14672 3.85331V9.54847V9.54852C7.14672 10.3121 7.36998 11.0245 7.7546 11.6239C8.23271 12.3689 8.9603 12.9391 9.81834 13.2162V14.1173C7.98083 13.6006 6.62976 11.9099 6.62976 9.90945C6.62976 9.37638 6.19603 8.94266 5.66296 8.94266C5.12989 8.94266 4.69617 9.37638 4.69617 9.90945C4.69617 12.9816 6.90532 15.547 9.81834 16.1017V16.9003C9.81834 17.0783 9.96259 17.2225 10.1406 17.2225C10.3186 17.2225 10.4629 17.0783 10.4629 16.9003V16.1903C10.8298 16.2211 11.1836 16.22 11.5371 16.1903V19.2745H10.4629V18.4042C10.4629 18.2261 10.3186 18.0819 10.1406 18.0819C9.96259 18.0819 9.81834 18.2261 9.81834 18.4042V19.2745H9.03683C8.28543 19.2745 7.67412 19.8859 7.67412 20.6372C7.67412 21.3886 8.28548 22 9.03691 22H12.9632C13.7146 22 14.3259 21.3887 14.3259 20.6373C14.3259 19.8859 13.7146 19.2745 12.9632 19.2745H12.1817V16.1018C15.0947 15.547 17.3038 12.9816 17.3038 9.9095ZM8.25647 11.2111C7.73264 10.3499 7.79125 9.62814 7.79125 8.99186H14.2088C14.2088 9.62178 14.2692 10.3469 13.7436 11.2111C13.2032 12.0994 12.2408 12.7097 11.1289 12.754C9.94519 12.8013 8.85679 12.1981 8.25647 11.2111ZM11.5371 13.3642V14.2467C11.1937 14.2891 10.8275 14.2917 10.4629 14.2467V13.3642C10.8083 13.4126 11.1707 13.4156 11.5371 13.3642ZM12.9632 19.9191C13.3592 19.9191 13.6814 20.2412 13.6814 20.6373C13.6814 21.0333 13.3592 21.3555 12.9632 21.3555H9.03691C8.64091 21.3555 8.31873 21.0333 8.31873 20.6373C8.31873 20.2412 8.64091 19.9191 9.03691 19.9191H12.9632ZM10.1873 15.5102C7.45046 15.1148 5.34074 12.754 5.34074 9.9095C5.34074 9.73178 5.48529 9.58723 5.66301 9.58723C5.84073 9.58723 5.98527 9.73178 5.98527 9.9095C5.98527 12.6643 8.22455 14.9242 11 14.9242C13.7526 14.9242 16.0148 12.686 16.0148 9.9095C16.0148 9.73178 16.1593 9.58723 16.337 9.58723C16.5148 9.58723 16.6593 9.73178 16.6593 9.9095C16.6593 13.3394 13.6099 16.0048 10.1873 15.5102Z" fill="currentColor"/>
</g>
<defs>
<clipPath id="clip0">
<rect width="22" height="22" fill="white"/>
</clipPath>
</defs>
</svg>
