<svg width="22" height="22" viewBox="0 0 22 22" fill="none" xmlns="http://www.w3.org/2000/svg">
<path d="M11 0C4.92488 0 0 4.92488 0 11C0 17.0751 4.92488 22 11 22C17.0751 22 22 17.0751 22 11C21.9931 4.92773 17.0723 0.006875 11 0ZM20.8692 13.8211L20.1802 13.5971L19.9533 14.2938L20.6452 14.5185C20.359 15.2991 19.979 16.0421 19.5136 16.731L18.927 16.3057L18.4958 16.8989L19.078 17.3221C18.5656 17.9761 17.9764 18.5661 17.3232 19.0795L16.9 18.4972L16.3068 18.9284L16.7321 19.5151C16.0432 19.98 15.3004 20.3594 14.52 20.6452L14.2952 19.9533L13.5986 20.1802L13.8226 20.8692C13.0229 21.0982 12.1981 21.2286 11.3667 21.2575V20.5333H10.6333V21.2575C9.80242 21.2285 8.97815 21.0981 8.17887 20.8692L8.4029 20.1802L7.70623 19.9533L7.48 20.6452C6.69941 20.359 5.95645 19.979 5.26753 19.5136L5.69287 18.927L5.0996 18.4958L4.67647 19.078C4.02275 18.5651 3.43305 17.9754 2.92013 17.3217L3.5024 16.8986L3.0712 16.3053L2.48453 16.7306C2.02052 16.0421 1.6418 15.2998 1.35667 14.52L2.04857 14.2952L1.8216 13.5986L1.13263 13.8226C0.903008 13.0229 0.772017 12.1981 0.7425 11.3667H1.46667V10.6333H0.7425C0.771513 9.80242 0.901908 8.97815 1.1308 8.17887L1.81977 8.4029L2.04673 7.70623L1.35667 7.48C1.64285 6.69941 2.02281 5.95645 2.4882 5.26753L3.07487 5.69287L3.50607 5.0996L2.9205 4.67683C3.43342 4.02311 4.02311 3.43342 4.67683 2.9205L5.09997 3.50277L5.69323 3.07157L5.2679 2.4849C5.95687 2.02065 6.69969 1.6418 7.48 1.35667L7.70477 2.04857L8.40143 1.8216L8.1774 1.13263C8.9771 0.903008 9.80187 0.772017 10.6333 0.7425V1.46667H11.3667V0.7425C12.1976 0.771513 13.0218 0.901908 13.8211 1.1308L13.5971 1.81977L14.2938 2.04673L14.52 1.35667C15.3006 1.64285 16.0435 2.02281 16.7325 2.4882L16.3071 3.07487L16.9004 3.50607L17.3235 2.9238C17.9773 3.43672 18.5669 4.02641 19.0799 4.68013L18.4976 5.10327L18.9288 5.69653L19.5155 5.2712C19.98 5.95907 20.3593 6.70074 20.6452 7.48L19.9533 7.70477L20.1802 8.40143L20.8692 8.1774C21.0982 8.97715 21.2286 9.80192 21.2575 10.6333H20.5333V11.3667H21.2575C21.2285 12.1976 21.0981 13.0218 20.8692 13.8211Z" fill="currentColor"/>
<path d="M11 2.93335C6.54492 2.93335 2.93335 6.54492 2.93335 11C2.93335 15.4551 6.54492 19.0667 11 19.0667C15.4551 19.0667 19.0667 15.4551 19.0667 11C19.0616 6.54703 15.453 2.93839 11 2.93335ZM11 18.3334C6.94991 18.3334 3.66668 15.0501 3.66668 11C3.66668 6.94991 6.94991 3.66668 11 3.66668C15.0501 3.66668 18.3334 6.94991 18.3334 11C18.3287 15.0482 15.0482 18.3287 11 18.3334Z" fill="currentColor"/>
<path d="M11.0001 4.7666C7.55747 4.7666 4.76672 7.55735 4.76672 10.9999C4.76672 14.4425 7.55747 17.2333 11.0001 17.2333C14.4426 17.2333 17.2334 14.4425 17.2334 10.9999C17.2295 7.55895 14.441 4.77045 11.0001 4.7666ZM15.715 8.18283C16.1413 8.8905 16.4012 9.68576 16.4751 10.5086L14.1787 10.3231C13.9769 10.3061 13.8271 10.1287 13.8441 9.92698C13.8521 9.83132 13.8974 9.74263 13.9701 9.67993L15.715 8.18283ZM12.2244 5.6422L11.3385 7.76887C11.2606 7.95578 11.0459 8.04414 10.859 7.96623C10.7697 7.92901 10.6988 7.85811 10.6616 7.76887L9.77576 5.6422C10.581 5.4525 11.4192 5.4525 12.2244 5.6422ZM6.28509 8.18274L8.03006 9.67993C8.18383 9.81171 8.20161 10.0432 8.06984 10.1969C8.00691 10.2704 7.91749 10.316 7.82106 10.3238L5.52462 10.5093C5.59851 9.68617 5.85857 8.89059 6.28509 8.18274ZM9.37279 13.8137L8.84039 16.057C8.0818 15.7295 7.40636 15.2361 6.86369 14.6131H6.86259L8.82499 13.4159C8.99783 13.3103 9.22347 13.3649 9.32902 13.5377C9.37948 13.6204 9.3952 13.7195 9.37279 13.8137ZM13.1597 16.057H13.1586L12.6251 13.8137C12.5782 13.6167 12.6999 13.419 12.8969 13.3721C12.9911 13.3497 13.0903 13.3654 13.1729 13.4159L15.1353 14.6131C14.593 15.236 13.9179 15.7294 13.1597 16.057ZM13.5557 12.7896C13.0371 12.4732 12.3602 12.6371 12.0438 13.1557C11.8926 13.4035 11.8454 13.7011 11.9127 13.9835L12.4627 16.2964C11.5062 16.5678 10.4931 16.5678 9.53669 16.2964H9.53596L10.086 13.9835C10.2265 13.3925 9.86128 12.7994 9.27022 12.6589C8.98793 12.5918 8.69061 12.6389 8.44292 12.79L6.41379 14.0286C5.8659 13.2 5.55432 12.2377 5.51252 11.2452L7.88046 11.0538C8.48592 11.0042 8.9365 10.4731 8.88687 9.86762C8.86317 9.57892 8.72659 9.31121 8.50672 9.1226L6.70272 7.57527C7.32262 6.79968 8.14029 6.20572 9.06956 5.85597L9.98329 8.04974C10.2168 8.61055 10.8608 8.87593 11.4216 8.64236C11.6897 8.53076 11.9027 8.31772 12.0143 8.04974L12.9284 5.85597C13.8575 6.20581 14.6752 6.79977 15.2952 7.57527L13.4934 9.1226C13.0323 9.51819 12.9792 10.2127 13.3748 10.6737C13.5637 10.8938 13.8317 11.0304 14.1208 11.0538L16.4887 11.2452C16.4469 12.2377 16.1353 13.2 15.5874 14.0286L13.5557 12.7896Z" fill="currentColor"/>
<path d="M11 9.53345C10.19 9.53345 9.53333 10.1901 9.53333 11.0001C9.53333 11.8101 10.19 12.4668 11 12.4668C11.81 12.4668 12.4667 11.8101 12.4667 11.0001C12.4667 10.1901 11.81 9.53345 11 9.53345ZM11 11.7334C10.595 11.7334 10.2667 11.4051 10.2667 11.0001C10.2667 10.5951 10.595 10.2668 11 10.2668C11.405 10.2668 11.7333 10.5951 11.7333 11.0001C11.7333 11.4051 11.405 11.7334 11 11.7334Z" fill="currentColor"/>
</svg>
