<svg width="22" height="22" viewBox="0 0 22 22" fill="none" xmlns="http://www.w3.org/2000/svg">
<path d="M11.3388 9.58822C11.3723 9.58822 11.4066 9.58755 11.4415 9.58604C11.6202 9.57865 11.759 9.42759 11.7517 9.249C11.7441 9.07025 11.5937 8.93211 11.4144 8.93882C11.252 8.94587 10.9656 8.9358 10.8763 8.7938C10.7619 8.61186 10.8924 8.1815 11.017 7.94802C11.1012 7.79058 11.0423 7.59471 10.8851 7.50994C10.7276 7.42518 10.5311 7.4841 10.4463 7.64154C10.3963 7.73435 9.96844 8.56436 10.327 9.13705C10.5145 9.43666 10.8545 9.58822 11.3388 9.58822Z" fill="currentColor"/>
<path d="M9.49129 7.33865C9.49129 6.96603 9.25597 6.67432 8.95569 6.67432C8.65524 6.67432 8.41992 6.96603 8.41992 7.33865C8.41992 7.71111 8.65524 8.00299 8.95569 8.00299C9.25597 8.00299 9.49129 7.71111 9.49129 7.33865Z" fill="currentColor"/>
<path d="M13.0245 8.00299C13.325 8.00299 13.5603 7.71111 13.5603 7.33865C13.5603 6.96603 13.325 6.67432 13.0245 6.67432C12.7241 6.67432 12.4888 6.96603 12.4888 7.33865C12.4888 7.71111 12.7241 8.00299 13.0245 8.00299Z" fill="currentColor"/>
<path d="M9.2964 9.94882C9.14668 10.0468 9.10506 10.2478 9.20308 10.3973C9.22943 10.4374 9.86238 11.3826 10.9903 11.3826C12.1181 11.3826 12.751 10.4374 12.7774 10.3973C12.8756 10.2478 12.8338 10.0468 12.6842 9.94882C12.5347 9.85079 12.3339 9.89242 12.2359 10.042C12.2314 10.0489 11.7723 10.7349 10.9903 10.7349C10.2174 10.7349 9.74858 10.0477 9.74472 10.042C9.64653 9.89242 9.44579 9.85079 9.2964 9.94882Z" fill="currentColor"/>
<path d="M21.636 21.6551C21.6295 21.5536 21.461 19.1569 20.1803 18.1215C20.0138 17.9869 19.7701 17.8177 19.4349 17.6042C19.2838 17.5082 19.0838 17.5525 18.9877 17.7034C18.8916 17.8543 18.936 18.0543 19.0868 18.1505C19.397 18.3481 19.6277 18.5077 19.7729 18.6252C20.5771 19.2753 20.8607 20.6961 20.9514 21.3522H6.16342C5.9845 21.3522 5.83948 21.4972 5.83948 21.6761C5.83948 21.8551 5.9845 21.9999 6.16342 21.9999H21.3129C21.4971 21.9999 21.6479 21.8393 21.636 21.6551Z" fill="currentColor"/>
<path d="M4.86795 21.3522H1.0293C1.11994 20.6958 1.4036 19.2751 2.20758 18.6251C3.20258 17.8206 7.53234 15.5115 8.69703 14.8957L10.0886 17.6047C10.263 17.9443 10.6085 18.1553 10.9903 18.1553C11.372 18.1553 11.7176 17.9443 11.892 17.6047L13.2836 14.8957C14.0726 15.313 16.3166 16.5084 17.9882 17.4852C18.1426 17.5755 18.341 17.5235 18.4311 17.3691C18.5214 17.2147 18.4694 17.0163 18.315 16.926C17.9915 16.737 17.6469 16.5399 17.2958 16.3419C17.5721 14.5887 17.8621 12.0378 17.7644 9.44757C17.6379 6.08745 16.8906 3.58016 15.5436 1.99553C14.4179 0.671385 12.8786 0 10.9682 0C9.30228 0 7.91352 0.512603 6.84081 1.52321C5.92001 2.3908 5.22579 3.63454 4.77748 5.21969C4.7288 5.3919 4.82884 5.57082 5.00088 5.6195C5.17292 5.66817 5.35202 5.56813 5.40069 5.39592C5.81661 3.92509 6.45057 2.78088 7.28493 1.99485C8.2336 1.1009 9.47281 0.647719 10.9682 0.647719C12.6799 0.647719 14.0532 1.2424 15.0502 2.41514C17.8386 5.69519 17.1936 12.6932 16.6926 16.0045C15.3051 15.2336 13.941 14.5101 13.4689 14.2611V12.6984C13.5354 12.6377 13.6007 12.5749 13.6638 12.5082C15.4787 10.5886 15.2808 6.88657 15.2714 6.7298C15.2637 6.59754 15.1759 6.4834 15.0502 6.44161C15.032 6.43573 13.2405 5.82175 12.1751 3.73592C12.1258 3.63924 12.0311 3.57378 11.9234 3.56153C11.8154 3.54928 11.7085 3.59191 11.6387 3.675C11.6228 3.69396 10.0153 5.57619 6.93212 6.41022C6.79852 6.44631 6.70251 6.5633 6.69344 6.70143C6.68304 6.85803 6.46064 10.5587 8.26281 12.4903C8.34287 12.5762 8.42612 12.6566 8.51172 12.7328V14.2609C8.02933 14.5152 6.65031 15.2458 5.24728 16.0265C4.90353 13.7664 4.50959 9.91989 5.11653 6.62758C5.14892 6.45168 5.0326 6.28282 4.8567 6.25043C4.6808 6.21804 4.51194 6.33435 4.47938 6.51026C3.83368 10.014 4.28669 14.1013 4.64421 16.3643C3.42061 17.0554 2.27522 17.7377 1.80055 18.1214C0.519887 19.157 0.351202 21.5537 0.344656 21.6552C0.332738 21.8393 0.483464 22 0.66776 22H4.86795C5.0467 22 5.19172 21.8549 5.19172 21.6762C5.19172 21.4973 5.0467 21.3522 4.86795 21.3522ZM12.8212 14.3782L11.3158 17.3088C11.182 17.5693 10.7986 17.5693 10.6647 17.3088L9.15944 14.3782V13.1899C9.68614 13.4764 10.288 13.6226 10.9596 13.6249H10.975C11.6654 13.6249 12.2827 13.4717 12.8212 13.1694V14.3782ZM7.3316 6.97066C9.7036 6.27678 11.2021 5.02498 11.8168 4.42594C12.7817 6.04398 14.1136 6.74759 14.6311 6.972C14.6442 7.75366 14.5891 10.5879 13.1921 12.0643C12.6161 12.6731 11.8666 12.9789 10.9616 12.9772C10.0578 12.9742 9.30933 12.662 8.73748 12.0495C7.36332 10.578 7.31464 7.78303 7.3316 6.97066Z" fill="currentColor"/>
</svg>
