<svg width="11" height="16" viewBox="0 0 11 16" fill="none" xmlns="http://www.w3.org/2000/svg">
<path d="M10.3824 2.91383L10.1198 2.54879C10.1118 2.13421 9.97877 1.69671 9.6977 1.30708C9.37232 0.854868 8.69464 0.382389 8.04445 0.3359C8.02979 0.335085 7.79057 0.33422 7.42136 0.333405C7.29564 0.33315 7.18779 0.421648 7.1632 0.544974C6.99664 1.3802 6.26677 2.01119 5.38256 2.01119C4.49829 2.01119 3.76796 1.3802 3.60176 0.544923C3.57727 0.421852 3.46917 0.333049 3.3437 0.333252C2.97729 0.333914 2.73904 0.335136 2.72061 0.3359C2.0719 0.382236 1.3934 0.854002 1.06737 1.30708C0.786852 1.69666 0.653291 2.13421 0.645297 2.54879L0.383267 2.91383C0.342227 2.96984 0.325271 3.04037 0.336778 3.10936C0.348235 3.17892 0.386272 3.23987 0.442792 3.28091L2.02256 4.41712C2.14008 4.50261 2.30455 4.47613 2.38963 4.3581L2.62916 4.02453C2.91731 4.74438 3.04272 5.51422 2.99939 6.27898C2.37828 7.58999 1.9642 9.37644 1.9642 11.3457C1.9642 12.1235 2.43811 13.9904 2.78258 15.2014C2.83278 15.3779 2.99404 15.4999 3.1775 15.4999H7.58771C7.77143 15.4999 7.93238 15.3781 7.98264 15.2014C8.32721 13.9905 8.80152 12.1236 8.80152 11.3458C8.80152 9.37791 8.38801 7.59259 7.76776 6.28183C7.72402 5.51646 7.84918 4.74611 8.13703 4.02611L8.37604 4.35815C8.46102 4.47618 8.62508 4.50266 8.74261 4.41717L10.3228 3.28096C10.3793 3.23997 10.4174 3.17897 10.4289 3.10941C10.4399 3.04037 10.4233 2.9699 10.3824 2.91383Z" fill="currentColor"/>
</svg>
